<?xml version="1.0" encoding="UTF-8" standalone="no"?>
<svg
   xmlns:dc="http://purl.org/dc/elements/1.1/"
   xmlns:cc="http://creativecommons.org/ns#"
   xmlns:rdf="http://www.w3.org/1999/02/22-rdf-syntax-ns#"
   xmlns:svg="http://www.w3.org/2000/svg"
   xmlns="http://www.w3.org/2000/svg"
   viewBox="0 0 2000 855.33331"
   height="855.33331"
   width="2000"
   xml:space="preserve"
   id="svg2"
   version="1.1"><metadata
     id="metadata8"><rdf:RDF><cc:Work
         rdf:about=""><dc:format>image/svg+xml</dc:format><dc:type
           rdf:resource="http://purl.org/dc/dcmitype/StillImage" /></cc:Work></rdf:RDF></metadata><defs
     id="defs6"><clipPath
       id="clipPath18"
       clipPathUnits="userSpaceOnUse"><path
         id="path16"
         d="M 0,641.5 H 1500 V 0 H 0 Z" /></clipPath><linearGradient
       id="linearGradient140"
       spreadMethod="pad"
       gradientTransform="matrix(176.86128,0,0,-176.86128,187.59662,470.2001)"
       gradientUnits="userSpaceOnUse"
       y2="0"
       x2="1"
       y1="0"
       x1="0"><stop
         id="stop132"
         offset="0"
         style="stop-opacity:1;stop-color:#f0ddb7" /><stop
         id="stop134"
         offset="0.51"
         style="stop-opacity:1;stop-color:#ddb866" /><stop
         id="stop136"
         offset="0.52380952"
         style="stop-opacity:1;stop-color:#ddb866" /><stop
         id="stop138"
         offset="1"
         style="stop-opacity:1;stop-color:#f0ddb7" /></linearGradient><linearGradient
       id="linearGradient164"
       spreadMethod="pad"
       gradientTransform="matrix(158.97568,0,0,-158.97568,195.27289,458.48212)"
       gradientUnits="userSpaceOnUse"
       y2="0"
       x2="1"
       y1="0"
       x1="0"><stop
         id="stop156"
         offset="0"
         style="stop-opacity:1;stop-color:#cdab5d" /><stop
         id="stop158"
         offset="0.51"
         style="stop-opacity:1;stop-color:#bf9a36" /><stop
         id="stop160"
         offset="0.52380952"
         style="stop-opacity:1;stop-color:#bf9a36" /><stop
         id="stop162"
         offset="1"
         style="stop-opacity:1;stop-color:#cdab5d" /></linearGradient><linearGradient
       id="linearGradient188"
       spreadMethod="pad"
       gradientTransform="matrix(167.34279,0,0,-167.34279,191.97214,434.86392)"
       gradientUnits="userSpaceOnUse"
       y2="0"
       x2="1"
       y1="0"
       x1="0"><stop
         id="stop180"
         offset="0"
         style="stop-opacity:1;stop-color:#e3c68c" /><stop
         id="stop182"
         offset="0.51"
         style="stop-opacity:1;stop-color:#dfbc6f" /><stop
         id="stop184"
         offset="0.52380952"
         style="stop-opacity:1;stop-color:#dfbc6f" /><stop
         id="stop186"
         offset="1"
         style="stop-opacity:1;stop-color:#e3c68c" /></linearGradient><clipPath
       id="clipPath198"
       clipPathUnits="userSpaceOnUse"><path
         id="path196"
         d="M 0,641.5 H 1500 V 0 H 0 Z" /></clipPath><radialGradient
       id="radialGradient224"
       spreadMethod="pad"
       gradientTransform="matrix(297.51527,0,0,-293.39602,276.33576,259.19518)"
       gradientUnits="userSpaceOnUse"
       r="0.5"
       cy="0"
       cx="0"
       fy="0"
       fx="0"><stop
         id="stop220"
         offset="0"
         style="stop-opacity:1;stop-color:#009e5e" /><stop
         id="stop222"
         offset="1"
         style="stop-opacity:1;stop-color:#00813e" /></radialGradient><clipPath
       id="clipPath234"
       clipPathUnits="userSpaceOnUse"><path
         id="path232"
         d="M 0,641.5 H 1500 V 0 H 0 Z" /></clipPath><radialGradient
       id="radialGradient308"
       spreadMethod="pad"
       gradientTransform="matrix(211.36727,0,0,-211.74632,248.83868,290.24957)"
       gradientUnits="userSpaceOnUse"
       r="0.5"
       cy="0"
       cx="0"
       fy="0"
       fx="0"><stop
         id="stop304"
         offset="0"
         style="stop-opacity:1;stop-color:#e7f2e5" /><stop
         id="stop306"
         offset="1"
         style="stop-opacity:1;stop-color:#6fc6ef" /></radialGradient><clipPath
       id="clipPath318"
       clipPathUnits="userSpaceOnUse"><path
         id="path316"
         d="M 0,641.5 H 1500 V 0 H 0 Z" /></clipPath><linearGradient
       id="linearGradient482"
       spreadMethod="pad"
       gradientTransform="matrix(154.1396,0,0,-154.1396,189.59251,229.9187)"
       gradientUnits="userSpaceOnUse"
       y2="0"
       x2="1"
       y1="0"
       x1="0"><stop
         id="stop476"
         offset="0"
         style="stop-opacity:1;stop-color:#ffffff" /><stop
         id="stop478"
         offset="0.26362297"
         style="stop-opacity:1;stop-color:#ffffff" /><stop
         id="stop480"
         offset="1"
         style="stop-opacity:1;stop-color:#fad8a9" /></linearGradient><linearGradient
       id="linearGradient504"
       spreadMethod="pad"
       gradientTransform="matrix(83.594437,0,0,-83.594437,195.96396,229.05357)"
       gradientUnits="userSpaceOnUse"
       y2="0"
       x2="1"
       y1="0"
       x1="0"><stop
         id="stop498"
         offset="0"
         style="stop-opacity:1;stop-color:#00a8b2" /><stop
         id="stop500"
         offset="0.26362297"
         style="stop-opacity:1;stop-color:#00a8b2" /><stop
         id="stop502"
         offset="1"
         style="stop-opacity:1;stop-color:#6ac0c7" /></linearGradient><linearGradient
       id="linearGradient526"
       spreadMethod="pad"
       gradientTransform="matrix(0,-48.207191,-48.207191,0,313.71075,327.18875)"
       gradientUnits="userSpaceOnUse"
       y2="0"
       x2="1"
       y1="0"
       x1="0"><stop
         id="stop520"
         offset="0"
         style="stop-opacity:1;stop-color:#0d9e6c" /><stop
         id="stop522"
         offset="0.26362297"
         style="stop-opacity:1;stop-color:#0d9e6c" /><stop
         id="stop524"
         offset="1"
         style="stop-opacity:1;stop-color:#007b45" /></linearGradient><clipPath
       id="clipPath536"
       clipPathUnits="userSpaceOnUse"><path
         id="path534"
         d="M 0,641.5 H 1500 V 0 H 0 Z" /></clipPath><linearGradient
       id="linearGradient560"
       spreadMethod="pad"
       gradientTransform="matrix(88.967918,0,0,-88.967918,266.20175,244.51833)"
       gradientUnits="userSpaceOnUse"
       y2="0"
       x2="1"
       y1="0"
       x1="0"><stop
         id="stop554"
         offset="0"
         style="stop-opacity:1;stop-color:#ecbc8f" /><stop
         id="stop556"
         offset="0.26362297"
         style="stop-opacity:1;stop-color:#ecbc8f" /><stop
         id="stop558"
         offset="1"
         style="stop-opacity:1;stop-color:#d39557" /></linearGradient><linearGradient
       id="linearGradient582"
       spreadMethod="pad"
       gradientTransform="matrix(0,-21.647133,-21.647133,0,332.50143,300.16815)"
       gradientUnits="userSpaceOnUse"
       y2="0"
       x2="1"
       y1="0"
       x1="0"><stop
         id="stop576"
         offset="0"
         style="stop-opacity:1;stop-color:#0d9e6c" /><stop
         id="stop578"
         offset="0.26362297"
         style="stop-opacity:1;stop-color:#0d9e6c" /><stop
         id="stop580"
         offset="1"
         style="stop-opacity:1;stop-color:#007b45" /></linearGradient><clipPath
       id="clipPath592"
       clipPathUnits="userSpaceOnUse"><path
         id="path590"
         d="M 0,641.5 H 1500 V 0 H 0 Z" /></clipPath><linearGradient
       id="linearGradient632"
       spreadMethod="pad"
       gradientTransform="matrix(23.412758,0,0,-23.412758,228.4505,297.59909)"
       gradientUnits="userSpaceOnUse"
       y2="0"
       x2="1"
       y1="0"
       x1="0"><stop
         id="stop626"
         offset="0"
         style="stop-opacity:1;stop-color:#e2e0e0" /><stop
         id="stop628"
         offset="0.26362297"
         style="stop-opacity:1;stop-color:#e2e0e0" /><stop
         id="stop630"
         offset="1"
         style="stop-opacity:1;stop-color:#fcfdff" /></linearGradient><linearGradient
       id="linearGradient654"
       spreadMethod="pad"
       gradientTransform="matrix(11.898122,0,0,-11.898122,234.42191,328.53021)"
       gradientUnits="userSpaceOnUse"
       y2="0"
       x2="1"
       y1="0"
       x1="0"><stop
         id="stop648"
         offset="0"
         style="stop-opacity:1;stop-color:#e2e0e0" /><stop
         id="stop650"
         offset="0.26362297"
         style="stop-opacity:1;stop-color:#e2e0e0" /><stop
         id="stop652"
         offset="1"
         style="stop-opacity:1;stop-color:#fcfdff" /></linearGradient><clipPath
       id="clipPath664"
       clipPathUnits="userSpaceOnUse"><path
         id="path662"
         d="M 0,641.5 H 1500 V 0 H 0 Z" /></clipPath></defs><g
     transform="matrix(1.3333333,0,0,-1.3333333,0,855.33333)"
     id="g10"><g
       id="g12"><g
         clip-path="url(#clipPath18)"
         id="g14"><g
           transform="translate(573.6523,417.3992)"
           id="g20"><path
             id="path22"
             style="fill:#495961;fill-opacity:1;fill-rule:nonzero;stroke:none"
             d="m 0,0 c -50.472,0 -88.692,-35.281 -88.692,-82.575 0,-47.285 38.464,-82.564 87.955,-82.564 29.644,0 52.921,12.742 67.864,30.62 v 3.437 l -29.398,24.988 h -3.425 c -8.09,-8.82 -20.587,-15.431 -34.551,-15.431 -21.808,0 -38.957,16.414 -38.957,38.95 0,22.554 17.149,38.965 38.957,38.965 13.964,0 26.461,-6.618 34.551,-15.437 h 3.425 l 29.398,24.987 v 3.438 C 51.698,-12.006 27.443,0 0,0" /></g><g
           transform="translate(665.7671,255.2561)"
           id="g24"><path
             id="path26"
             style="fill:#495961;fill-opacity:1;fill-rule:nonzero;stroke:none"
             d="M 0,0 H 122.014 V 39.91 H 48.512 v 22.451 h 55.37 v 37.422 h -55.37 v 22.453 h 73.502 v 39.91 H 0 Z" /></g><g
           transform="translate(1242.4956,427.1482)"
           id="g28"><path
             id="path30"
             style="fill:#495961;fill-opacity:1;fill-rule:nonzero;stroke:none"
             d="m 0,0 63.942,24.011 v 3.431 L 47.04,55.369 H 43.608 L -12.989,20.58 V 17.148 L -3.431,0 Z" /></g><g
           transform="translate(1243.4702,312.1316)"
           id="g32"><path
             id="path34"
             style="fill:#495961;fill-opacity:1;fill-rule:nonzero;stroke:none"
             d="M 0,0 17.887,48.138 34.798,0 Z M 87.717,-0.751 68.351,42.459 40.186,105.266 H -4.406 L -72.278,-56.873 h 50.963 l 9.065,24.442 h 60.519 c 4.905,-8.736 10.049,-15.46 15.676,-19.959 6.623,-4.99 14.707,-7.478 25.002,-7.478 8.989,0 16.933,1.906 23.295,5.3 L 90.365,-6.193 c -0.844,1.565 -1.719,3.362 -2.648,5.442" /></g><g
           transform="translate(878.146,312.1316)"
           id="g36"><path
             id="path38"
             style="fill:#495961;fill-opacity:1;fill-rule:nonzero;stroke:none"
             d="M 0,0 17.884,48.138 34.789,0 Z M 87.717,-0.751 68.342,42.459 40.177,105.266 H -4.416 L -72.288,-56.873 h 50.97 l 9.065,24.442 h 60.52 c 4.898,-8.736 10.048,-15.46 15.676,-19.959 6.625,-4.99 14.707,-7.478 25.001,-7.478 8.989,0 16.933,1.906 23.289,5.3 L 90.356,-6.193 c -0.845,1.565 -1.719,3.362 -2.639,5.442" /></g><g
           transform="translate(1083.0049,344.5598)"
           id="g40"><path
             id="path42"
             style="fill:#495961;fill-opacity:1;fill-rule:nonzero;stroke:none"
             d="M 0,0 H -24.995 V 32.93 H 0 c 9.059,0 16.896,-5.988 16.896,-16.966 C 16.896,5.242 9.059,0 0,0 m 36.991,-25.7 c 17.65,7.981 29.402,23.204 29.402,44.407 0,33.183 -22.539,54.132 -64.435,54.132 H -73.508 V -89.299 h 48.513 v 56.873 h 3.923 c 10.778,0 20.826,-22.208 26.699,-32.678 11.03,-19.467 21.324,-27.196 43.372,-27.196 9.802,0 19.842,3.238 24.746,7.237 l 0.146,0.401 -35.886,57.839 c -0.337,0.386 -0.674,0.782 -1.014,1.123" /></g><g
           transform="translate(537.1309,197.718)"
           id="g44"><path
             id="path46"
             style="fill:#495961;fill-opacity:1;fill-rule:nonzero;stroke:none"
             d="m 0,0 c 0,-7.04 -2.748,-13.317 -7.422,-17.832 -4.583,-4.514 -11.093,-7.346 -18.585,-7.346 -14.923,0 -26.177,10.938 -26.177,25.784 0,14.847 11.561,25.786 26.247,25.786 8.491,0 16.067,-3.824 20.741,-9.557 v -0.923 l -7.346,-6.194 h -0.92 c -2.827,3.516 -7.118,5.887 -12.168,5.887 -7.884,0 -14.386,-6.195 -14.386,-15.075 0,-8.712 6.203,-14.922 14.616,-14.922 3.678,0 7.039,1.236 9.487,3.454 1.919,1.751 3.217,3.968 3.678,6.571 h -13.31 V 4.43 h 24.47 L -0.152,3.67 C 0,2.518 0,1.067 0,0" /></g><g
           transform="translate(587.5103,198.3274)"
           id="g48"><path
             id="path50"
             style="fill:#495961;fill-opacity:1;fill-rule:nonzero;stroke:none"
             d="m 0,0 c 0,8.797 -6.662,14.992 -15.075,14.992 -8.414,0 -15.076,-6.195 -15.076,-14.992 0,-8.719 6.662,-14.993 15.076,-14.993 C -6.662,-14.993 0,-8.719 0,0 m -42.387,0 c 0,14.771 11.783,25.785 27.312,25.785 15.452,0 27.243,-11.014 27.243,-25.785 0,-14.692 -11.791,-25.785 -27.243,-25.785 -15.529,0 -27.312,11.023 -27.312,25.785" /></g><g
           transform="translate(655.6465,222.2727)"
           id="g52"><path
             id="path54"
             style="fill:#495961;fill-opacity:1;fill-rule:nonzero;stroke:none"
             d="m 0,0 -22.415,-48.813 h -7.047 L -51.877,0 l 0.546,0.923 h 12.236 l 13.158,-31.981 13.617,31.981 h 11.782 z" /></g><g
           transform="translate(676.646,213.3997)"
           id="g56"><path
             id="path58"
             style="fill:#495961;fill-opacity:1;fill-rule:nonzero;stroke:none"
             d="m 0,0 v -10.331 h 18.823 v -9.335 H 0 v -10.478 h 24.48 v -9.795 H -11.937 V 9.788 H 24.334 V 0 Z" /></g><g
           transform="translate(725.0435,200.3157)"
           id="g60"><path
             id="path62"
             style="fill:#495961;fill-opacity:1;fill-rule:nonzero;stroke:none"
             d="m 0,0 h 9.565 c 4.052,0 6.961,2.45 6.961,6.435 0,4.051 -2.909,6.653 -6.961,6.653 H 0 Z m 29.378,-25.937 -0.531,-0.92 H 16.988 L 6.963,-8.19 H 0 V -26.857 H -11.938 V 22.876 H 9.481 c 12.551,0 19.214,-6.04 19.214,-15.843 0,-6.724 -3.832,-11.391 -9.797,-13.686 z" /></g><g
           transform="translate(810.395,223.1936)"
           id="g64"><path
             id="path66"
             style="fill:#495961;fill-opacity:1;fill-rule:nonzero;stroke:none"
             d="m 0,0 v -49.967 h -7.422 l -25.241,29.615 V -49.735 H -44.522 V 0 h 7.416 l 25.169,-29.608 V 0 Z" /></g><g
           transform="translate(864.2178,198.3274)"
           id="g68"><path
             id="path70"
             style="fill:#495961;fill-opacity:1;fill-rule:nonzero;stroke:none"
             d="m 0,0 c 0,8.797 -6.656,14.992 -15.069,14.992 -8.421,0 -15.077,-6.195 -15.077,-14.992 0,-8.719 6.656,-14.993 15.077,-14.993 C -6.656,-14.993 0,-8.719 0,0 m -42.381,0 c 0,14.771 11.776,25.785 27.312,25.785 15.452,0 27.235,-11.014 27.235,-25.785 0,-14.692 -11.783,-25.785 -27.235,-25.785 -15.536,0 -27.312,11.023 -27.312,25.785" /></g><g
           transform="translate(943.2046,198.3274)"
           id="g72"><path
             id="path74"
             style="fill:#495961;fill-opacity:1;fill-rule:nonzero;stroke:none"
             d="m 0,0 c 0,9.41 -5.818,15.076 -14.395,15.076 h -9.41 v -30.145 h 9.41 C -5.818,-15.069 0,-9.411 0,0 m 12.159,0.075 c 0,-14.998 -10.088,-24.938 -26.161,-24.938 h -21.725 v 49.727 h 21.725 c 16.073,0 26.161,-9.948 26.161,-24.789" /></g><g
           transform="translate(1006.2852,198.3274)"
           id="g76"><path
             id="path78"
             style="fill:#495961;fill-opacity:1;fill-rule:nonzero;stroke:none"
             d="m 0,0 c 0,8.797 -6.656,14.992 -15.068,14.992 -8.43,0 -15.078,-6.195 -15.078,-14.992 0,-8.719 6.648,-14.993 15.078,-14.993 C -6.656,-14.993 0,-8.719 0,0 m -42.38,0 c 0,14.771 11.782,25.785 27.312,25.785 15.451,0 27.234,-11.014 27.234,-25.785 0,-14.692 -11.783,-25.785 -27.234,-25.785 -15.53,0 -27.312,11.023 -27.312,25.785" /></g><g
           transform="translate(1061.4702,213.3997)"
           id="g80"><path
             id="path82"
             style="fill:#495961;fill-opacity:1;fill-rule:nonzero;stroke:none"
             d="m 0,0 v -10.331 h 18.823 v -9.335 H 0 v -10.478 h 24.48 v -9.795 H -11.936 V 9.788 h 36.271 l 0,-9.788 z" /></g><g
           transform="translate(1094.187,181.4934)"
           id="g84"><path
             id="path86"
             style="fill:#495961;fill-opacity:1;fill-rule:nonzero;stroke:none"
             d="M 0,0 V 0.92 L 5.888,7.729 H 6.733 C 9.864,4.13 15.605,1.151 20.504,1.151 c 4.89,0 7.954,1.99 7.954,4.899 0,4.199 -4.823,4.737 -10.948,6.646 -6.802,2.151 -15.138,5.981 -15.138,15.231 0,8.642 7.652,14.692 18.739,14.692 8.113,0 15.075,-3.217 18.667,-7.508 V 34.276 L 33.891,27.55 h -0.836 c -2.457,2.517 -6.587,5.427 -11.783,5.427 -3.984,0 -6.732,-1.688 -6.732,-4.437 0,-3.285 3.745,-4.589 7.799,-5.964 8.49,-2.68 18.36,-5.281 18.36,-16.45 0,-9.719 -8.795,-15.075 -19.512,-15.075 C 12.313,-8.949 4.421,-5.436 0,0" /></g><g
           transform="translate(1168.5942,173.4602)"
           id="g88"><path
             id="path90"
             style="fill:#495961;fill-opacity:1;fill-rule:nonzero;stroke:none"
             d="m 0,0 h -11.999 v 39.939 h -15.612 v 9.789 H 15.614 V 39.939 H 0 Z" /></g><g
           transform="translate(1216.1563,190.4505)"
           id="g92"><path
             id="path94"
             style="fill:#495961;fill-opacity:1;fill-rule:nonzero;stroke:none"
             d="M 0,0 -6.955,16.902 -14.148,0 Z m 19.596,-16.067 -0.553,-0.93 H 6.969 l -3.593,8.728 h -21.048 l -3.677,-8.728 h -11.622 l -0.546,0.93 22.961,48.812 h 7.269 z" /></g><g
           transform="translate(1280.4678,198.3274)"
           id="g96"><path
             id="path98"
             style="fill:#495961;fill-opacity:1;fill-rule:nonzero;stroke:none"
             d="m 0,0 c 0,9.41 -5.812,15.076 -14.385,15.076 h -9.411 v -30.145 h 9.411 C -5.812,-15.069 0,-9.411 0,0 m 12.166,0.075 c 0,-14.998 -10.101,-24.938 -26.159,-24.938 h -21.732 v 49.727 h 21.732 c 16.058,0 26.159,-9.948 26.159,-24.789" /></g><g
           transform="translate(1343.5469,198.3274)"
           id="g100"><path
             id="path102"
             style="fill:#495961;fill-opacity:1;fill-rule:nonzero;stroke:none"
             d="m 0,0 c 0,8.797 -6.654,14.992 -15.069,14.992 -8.42,0 -15.084,-6.195 -15.084,-14.992 0,-8.719 6.664,-14.993 15.084,-14.993 C -6.654,-14.993 0,-8.719 0,0 m -42.381,0 c 0,14.771 11.776,25.785 27.312,25.785 15.454,0 27.236,-11.014 27.236,-25.785 0,-14.692 -11.782,-25.785 -27.236,-25.785 -15.536,0 -27.312,11.023 -27.312,25.785" /></g><g
           transform="translate(392.7041,322.4871)"
           id="g104"><path
             id="path106"
             style="fill:#ffffff;fill-opacity:1;fill-rule:nonzero;stroke:none"
             d="m 0,0 c 1.734,15.454 12.667,26.062 25.309,34.105 l 2.25,1.437 -42.22,53.595 -0.89,0.168 c -5.05,0.96 -10.103,1.834 -15.154,2.642 -15.399,2.071 -26.298,3.462 -35.824,4.39 -2.617,0.238 -5.236,0.438 -7.845,0.639 l -0.254,0.014 -2.363,0.168 -0.631,0.039 -0.621,0.037 c -5.818,0.385 -11.645,0.677 -17.479,0.869 h -0.046 v 0.015 c -0.692,0.024 -1.39,0.039 -2.095,0.06 v -0.006 c -0.576,0.016 -1.16,0.03 -1.752,0.039 -21.331,0.459 -40.207,-0.27 -53.626,-1.09 -4.659,-0.276 -34.735,-3.279 -40.338,-3.948 l -0.907,-0.115 c -6.83,-0.935 -20.863,-3.116 -25.992,-3.914 l -42.211,-53.602 2.241,-1.437 c 12.636,-8.043 23.574,-18.651 25.309,-34.105 1.712,-15.154 -6.471,-32.776 -12.19,-46.564 -7.692,-18.508 -14.853,-36.777 -14.853,-57.112 0,-4.375 0.668,-8.682 1.958,-12.851 4.191,-13.541 14.638,-24.416 25.622,-33.076 12.806,-10.086 27.674,-18.355 42.09,-26.007 14.983,-7.944 30.504,-15.461 44.974,-24.273 9.651,-5.886 22.484,-14.553 27.805,-24.71 l 2.164,-4.136 2.166,4.136 c 5.318,10.157 18.169,18.824 27.801,24.71 14.471,8.812 29.986,16.329 44.975,24.273 14.419,7.652 29.287,15.921 42.098,26.007 10.994,8.66 21.425,19.535 25.631,33.076 1.291,4.169 1.943,8.476 1.943,12.851 0,20.335 -7.154,38.604 -14.839,57.112 C 6.472,-32.776 -1.71,-15.154 0,0" /></g><g
           transform="translate(326.7905,472.7405)"
           id="g108"><path
             id="path110"
             style="fill:#eedcb8;fill-opacity:1;fill-rule:evenodd;stroke:none"
             d="M 0,0 8.515,-1.306 8.598,3.838 Z" /></g><g
           transform="translate(250.6802,479.5862)"
           id="g112"><path
             id="path114"
             style="fill:#eedcb8;fill-opacity:1;fill-rule:evenodd;stroke:none"
             d="m 0,0 -0.094,-4.99 4.953,0.329 z" /></g><g
           transform="translate(294.6216,474.9905)"
           id="g116"><path
             id="path118"
             style="fill:#eedcb8;fill-opacity:1;fill-rule:evenodd;stroke:none"
             d="M 0,0 4.959,-0.322 4.858,4.659 Z" /></g></g></g><g
       id="g120"><g
         id="g122"><g
           id="g128"><g
             id="g130"><path
               id="path142"
               style="fill:url(#linearGradient140);stroke:none"
               d="m 278.467,482.155 h -0.115 -0.118 -0.115 -0.117 -0.116 -0.115 -0.118 -0.115 -0.117 -0.116 -0.116 -0.117 -0.115 -0.118 -0.115 -0.115 -0.118 -0.115 -0.117 -0.116 -0.163 -0.163 -0.164 -0.163 -0.163 -0.164 -0.162 -0.164 -0.164 c -3.008,0 -6.035,-0.014 -9.055,-0.052 v 0 c -0.559,-0.014 -0.99,-0.455 -0.99,-0.989 v 0 -6.773 c -5.22,-0.121 -10.569,-0.315 -15.95,-0.551 v 0 6.671 c 0,0.268 -0.124,0.537 -0.315,0.72 v 0 c -0.207,0.185 -0.469,0.291 -0.753,0.261 v 0 c -5.88,-0.368 -11.935,-0.859 -17.994,-1.458 v 0 c -0.506,-0.045 -0.898,-0.46 -0.898,-0.974 v 0 -6.724 c -5.433,-0.592 -10.086,-1.169 -15.198,-1.868 v 0 6.778 c 0,0.292 -0.131,0.563 -0.345,0.762 v 0 c -0.224,0.183 -0.531,0.262 -0.807,0.213 v 0 c -3.838,-0.613 -7.983,-1.479 -11.983,-2.318 v 0 c -2.363,-0.49 -4.598,-0.959 -6.769,-1.371 v 0 c -0.453,-0.092 -0.801,-0.474 -0.822,-0.933 v 0 -7.419 c 0.006,-0.137 0.052,-0.287 0.115,-0.416 v 0 c 0.974,-1.889 1.964,-3.768 2.948,-5.657 v 0 c 0.146,-0.292 0.453,-0.468 0.769,-0.507 v 0 c 0.151,-0.024 0.313,0 0.459,0.039 v 0 c 26.346,4.176 50.925,6.225 75.159,6.293 v 0 c 25.424,0.085 50.349,-2.992 79.955,-7.623 v 0 c 0.055,-0.006 0.101,-0.015 0.155,-0.015 v 0 c 0.231,0 0.468,0.094 0.652,0.231 v 0 c 0.214,0.191 0.353,0.461 0.353,0.753 v 0 0.898 c 0.798,1.513 1.588,3.026 2.396,4.529 v 0 l 0.568,1.051 c 0.067,0.139 0.097,0.306 0.097,0.452 v 0 7.348 c 0,0.468 -0.328,0.875 -0.804,0.976 v 0 l -3.017,0.589 c -5.074,1.014 -10.333,2.058 -15.338,2.887 v 0 c -0.277,0.037 -0.567,-0.03 -0.791,-0.216 v 0 c -0.223,-0.176 -0.354,-0.445 -0.369,-0.729 v 0 l -0.145,-3.968 0.039,-2.38 c -4.136,0.561 -8.068,0.967 -12.189,1.405 v 0 c -1.082,0.107 -2.187,0.222 -3.302,0.346 v 0 6.7 c 0,0.5 -0.391,0.93 -0.914,0.984 v 0 c -5.895,0.568 -11.944,1.051 -17.978,1.436 v 0 c -0.282,0.014 -0.558,-0.094 -0.759,-0.27 v 0 c -0.206,-0.185 -0.307,-0.446 -0.307,-0.723 v 0 -6.647 c -5.228,0.224 -10.586,0.391 -15.958,0.485 v 0 6.754 c 0,0.553 -0.446,0.99 -1.007,0.99 v 0 c -1.666,0.019 -3.332,0.026 -4.999,0.03 v 0 z" /></g></g></g></g><g
       id="g144"><g
         id="g146"><g
           id="g152"><g
             id="g154"><path
               id="path166"
               style="fill:url(#linearGradient164);stroke:none"
               d="m 196.118,458.529 7.03,-6.903 c 0,0 36.233,6.09 70.745,6.09 v 0 c 34.513,0 72.964,-6.09 72.964,-6.09 v 0 l 4.875,4.562 1.372,2.341 c 0,0 -31.941,6.809 -75.785,6.809 v 0 c -43.848,0 -81.201,-6.809 -81.201,-6.809" /></g></g></g></g><g
       id="g168"><g
         id="g170"><g
           id="g176"><g
             id="g178"><path
               id="path190"
               style="fill:url(#linearGradient188);stroke:none"
               d="m 209.176,451.934 -16.274,-38.78 c 0,0 40.729,4.768 84.546,5.712 v 0 c 43.731,0.96 80.141,-5.772 80.348,-6.009 v 0 c -0.162,0.328 -17.128,39.362 -17.128,39.362 v 0 c 0,0 -28.938,3.683 -63.596,4.559 v 0 c -2.487,0.063 -4.968,0.093 -7.425,0.093 v 0 c -31.832,0 -60.471,-4.937 -60.471,-4.937" /></g></g></g></g><g
       id="g192"><g
         clip-path="url(#clipPath198)"
         id="g194"><g
           transform="translate(286.2412,419.656)"
           id="g200"><path
             id="path202"
             style="fill:#eedcb8;fill-opacity:1;fill-rule:evenodd;stroke:none"
             d="m 0,0 -24.549,-0.315 c 0,0 0.462,10.446 1.559,13.832 1.098,3.385 3.369,7.163 6.094,8.813 2.727,1.636 5.919,2.441 8.891,1.351 2.977,-1.075 4.959,-2.663 6.879,-5.925 1.91,-3.256 2.617,-6.374 3.222,-10.034 0.598,-3.671 0,-7.899 0,-7.899 z" /></g><g
           transform="translate(311.7573,449.9671)"
           id="g204"><path
             id="path206"
             style="fill:#eedcb8;fill-opacity:1;fill-rule:evenodd;stroke:none"
             d="m 0,0 c -3.923,-0.231 -7.447,-2.67 -7.17,-5.871 0.276,-3.203 2.156,-18.017 2.156,-18.017 L 10.777,-25.032 7.905,-4.674 C 7.905,-4.674 3.914,0.23 0,0" /></g></g></g><g
       id="g208"><g
         id="g210"><g
           id="g216"><g
             id="g218"><path
               id="path226"
               style="fill:url(#radialGradient224);stroke:none"
               d="M 179.407,398.899 149.34,361.272 c 11.436,-9.497 19.928,-21.435 21.691,-36.971 v 0 c 2.074,-18.484 -6.094,-37.052 -13.049,-53.802 v 0 c -6.886,-16.574 -13.825,-33.66 -13.825,-51.861 v 0 c 0,-2.962 0.454,-5.865 1.32,-8.698 v 0 c 6.871,-22.145 41.552,-40.529 60.926,-50.808 v 0 c 15.316,-8.13 31.121,-15.798 45.92,-24.811 v 0 c 7.476,-4.558 16.052,-9.732 22.815,-16.219 v 0 c 6.738,6.487 14.392,11.661 21.885,16.219 v 0 c 14.799,9.013 30.597,16.681 45.91,24.811 v 0 c 20.657,10.955 62.023,32.188 62.24,59.291 v 0 0.559 c -0.087,18.073 -6.967,35.047 -13.809,51.517 v 0 c -6.963,16.75 -14.953,35.287 -12.873,53.758 v 0 c 1.749,15.543 10.295,27.111 21.723,36.607 v 0 l -30.374,38.15 c -30.514,5.513 -61.243,8.053 -92,8.053 v 0 c -32.879,0 -65.786,-2.901 -98.433,-8.168" /></g></g></g></g><g
       id="g228"><g
         clip-path="url(#clipPath234)"
         id="g230"><g
           transform="translate(184.9409,348.2864)"
           id="g236"><path
             id="path238"
             style="fill:#ffffff;fill-opacity:1;fill-rule:evenodd;stroke:none"
             d="m 0,0 -2.473,-7.931 -8.035,0.015 6.517,-4.896 -2.503,-7.928 6.494,4.91 6.51,-4.91 -2.511,7.928 6.517,4.896 -8.044,-0.015 z" /></g><g
           transform="translate(184.9409,348.2864)"
           id="g240"><path
             id="path242"
             style="fill:none;stroke:#ffffff;stroke-width:0.21600001;stroke-linecap:butt;stroke-linejoin:miter;stroke-miterlimit:2.61299992;stroke-dasharray:none;stroke-opacity:1"
             d="m 0,0 -2.473,-7.931 -8.035,0.015 6.517,-4.896 -2.503,-7.928 6.494,4.91 6.51,-4.91 -2.511,7.928 6.517,4.896 -8.044,-0.015 z" /></g><g
           transform="translate(178.1753,294.3279)"
           id="g244"><path
             id="path246"
             style="fill:#ffffff;fill-opacity:1;fill-rule:evenodd;stroke:none"
             d="m 0,0 -2.472,-7.93 -8.044,0.015 6.517,-4.897 -2.502,-7.929 6.501,4.919 6.493,-4.919 -2.503,7.929 6.517,4.897 -8.044,-0.015 z" /></g><g
           transform="translate(178.1753,294.3279)"
           id="g248"><path
             id="path250"
             style="fill:none;stroke:#ffffff;stroke-width:0.21600001;stroke-linecap:butt;stroke-linejoin:miter;stroke-miterlimit:2.61299992;stroke-dasharray:none;stroke-opacity:1"
             d="m 0,0 -2.472,-7.93 -8.044,0.015 6.517,-4.897 -2.502,-7.929 6.501,4.919 6.493,-4.919 -2.503,7.929 6.517,4.897 -8.044,-0.015 z" /></g><g
           transform="translate(169.4038,245.9846)"
           id="g252"><path
             id="path254"
             style="fill:#ffffff;fill-opacity:1;fill-rule:evenodd;stroke:none"
             d="M 0,0 -2.48,-7.929 -10.517,-7.914 -4,-12.818 -6.501,-20.741 0,-15.828 6.502,-20.741 4,-12.818 10.517,-7.914 2.472,-7.929 Z" /></g><g
           transform="translate(169.4038,245.9846)"
           id="g256"><path
             id="path258"
             style="fill:none;stroke:#ffffff;stroke-width:0.21600001;stroke-linecap:butt;stroke-linejoin:miter;stroke-miterlimit:2.61299992;stroke-dasharray:none;stroke-opacity:1"
             d="M 0,0 -2.48,-7.929 -10.517,-7.914 -4,-12.818 -6.501,-20.741 0,-15.828 6.502,-20.741 4,-12.818 10.517,-7.914 2.472,-7.929 Z" /></g><g
           transform="translate(274.1387,161.8606)"
           id="g260"><path
             id="path262"
             style="fill:#ffffff;fill-opacity:1;fill-rule:evenodd;stroke:none"
             d="m 0,0 -2.472,-7.938 -8.044,0.015 6.517,-4.89 L -6.501,-20.75 0,-15.828 6.502,-20.75 4,-12.813 l 6.517,4.89 -8.036,-0.015 z" /></g><g
           transform="translate(274.1387,161.8606)"
           id="g264"><path
             id="path266"
             style="fill:none;stroke:#ffffff;stroke-width:0.21600001;stroke-linecap:butt;stroke-linejoin:miter;stroke-miterlimit:2.61299992;stroke-dasharray:none;stroke-opacity:1"
             d="m 0,0 -2.472,-7.938 -8.044,0.015 6.517,-4.89 L -6.501,-20.75 0,-15.828 6.502,-20.75 4,-12.813 l 6.517,4.89 -8.036,-0.015 z" /></g><g
           transform="translate(322.667,181.4768)"
           id="g268"><path
             id="path270"
             style="fill:#ffffff;fill-opacity:1;fill-rule:evenodd;stroke:none"
             d="m 0,0 -2.47,-7.938 -8.053,0.015 6.525,-4.89 -2.51,-7.937 6.508,4.922 6.496,-4.922 -2.503,7.937 6.517,4.89 -8.038,-0.015 z" /></g><g
           transform="translate(322.667,181.4768)"
           id="g272"><path
             id="path274"
             style="fill:none;stroke:#ffffff;stroke-width:0.21600001;stroke-linecap:butt;stroke-linejoin:miter;stroke-miterlimit:2.61299992;stroke-dasharray:none;stroke-opacity:1"
             d="m 0,0 -2.47,-7.938 -8.053,0.015 6.525,-4.89 -2.51,-7.937 6.508,4.922 6.496,-4.922 -2.503,7.937 6.517,4.89 -8.038,-0.015 z" /></g><g
           transform="translate(225.1543,181.4768)"
           id="g276"><path
             id="path278"
             style="fill:#ffffff;fill-opacity:1;fill-rule:evenodd;stroke:none"
             d="M 0,0 2.48,-7.938 10.516,-7.923 4,-12.813 6.502,-20.75 0,-15.828 -6.502,-20.75 -4,-12.813 l -6.508,4.89 8.029,-0.015 z" /></g><g
           transform="translate(225.1543,181.4768)"
           id="g280"><path
             id="path282"
             style="fill:none;stroke:#ffffff;stroke-width:0.21600001;stroke-linecap:butt;stroke-linejoin:miter;stroke-miterlimit:2.61299992;stroke-dasharray:none;stroke-opacity:1"
             d="M 0,0 2.48,-7.938 10.516,-7.923 4,-12.813 6.502,-20.75 0,-15.828 -6.502,-20.75 -4,-12.813 l -6.508,4.89 8.029,-0.015 z" /></g><g
           transform="translate(186.5786,207.2464)"
           id="g284"><path
             id="path286"
             style="fill:#ffffff;fill-opacity:1;fill-rule:evenodd;stroke:none"
             d="m 0,0 2.472,-7.929 8.036,0.006 -6.517,-4.89 2.503,-7.928 -6.494,4.913 -6.51,-4.913 2.511,7.928 -6.526,4.89 8.053,-0.006 z" /></g><g
           transform="translate(186.5786,207.2464)"
           id="g288"><path
             id="path290"
             style="fill:none;stroke:#ffffff;stroke-width:0.21600001;stroke-linecap:butt;stroke-linejoin:miter;stroke-miterlimit:2.61299992;stroke-dasharray:none;stroke-opacity:1"
             d="m 0,0 2.472,-7.929 8.036,0.006 -6.517,-4.89 2.503,-7.928 -6.494,4.913 -6.51,-4.913 2.511,7.928 -6.526,4.89 8.053,-0.006 z" /></g></g></g><g
       id="g292"><g
         id="g294"><g
           id="g300"><g
             id="g302"><path
               id="path310"
               style="fill:url(#radialGradient308);stroke:none"
               d="m 195.772,274.829 h 157.702 c 1.298,50.377 -25.07,102.069 -78.844,102.069 v 0 c -53.78,0 -80.154,-51.692 -78.858,-102.069" /></g></g></g></g><g
       id="g312"><g
         clip-path="url(#clipPath318)"
         id="g314"><g
           transform="translate(195.7456,280.0686)"
           id="g320"><path
             id="path322"
             style="fill:#cfa60e;fill-opacity:1;fill-rule:evenodd;stroke:none"
             d="M 0,0 H 44.371 V -1.889 H -0.03 v 0.423 h 0.016 C -0.014,-0.976 0,-0.491 0,0" /></g><g
           transform="translate(195.7456,280.0686)"
           id="g324"><path
             id="path326"
             style="fill:none;stroke:#cfa60e;stroke-width:0.21600001;stroke-linecap:butt;stroke-linejoin:miter;stroke-miterlimit:2.61299992;stroke-dasharray:none;stroke-opacity:1"
             d="M 0,0 H 44.371 V -1.889 H -0.03 v 0.423 h 0.016 C -0.014,-0.976 0,-0.491 0,0 Z" /></g><g
           transform="translate(196.125,288.6682)"
           id="g328"><path
             id="path330"
             style="fill:#cfa60e;fill-opacity:1;fill-rule:evenodd;stroke:none"
             d="M 0,0 44.208,-8.652 43.832,-10.493 -0.13,-1.896 C -0.085,-1.258 -0.055,-0.629 0,0" /></g><g
           transform="translate(196.125,288.6682)"
           id="g332"><path
             id="path334"
             style="fill:none;stroke:#cfa60e;stroke-width:0.21600001;stroke-linecap:butt;stroke-linejoin:miter;stroke-miterlimit:2.61299992;stroke-dasharray:none;stroke-opacity:1"
             d="M 0,0 44.208,-8.652 43.832,-10.493 -0.13,-1.896 C -0.085,-1.258 -0.055,-0.629 0,0 Z" /></g><g
           transform="translate(197.0996,297.6238)"
           id="g336"><path
             id="path338"
             style="fill:#cfa60e;fill-opacity:1;fill-rule:evenodd;stroke:none"
             d="M 0,0 43.432,-17.694 42.694,-19.437 -0.262,-1.934 C -0.185,-1.281 -0.094,-0.646 0,0" /></g><g
           transform="translate(197.0996,297.6238)"
           id="g340"><path
             id="path342"
             style="fill:none;stroke:#cfa60e;stroke-width:0.21600001;stroke-linecap:butt;stroke-linejoin:miter;stroke-miterlimit:2.61299992;stroke-dasharray:none;stroke-opacity:1"
             d="M 0,0 43.432,-17.694 42.694,-19.437 -0.262,-1.934 C -0.185,-1.281 -0.094,-0.646 0,0 Z" /></g><g
           transform="translate(198.8511,307.2986)"
           id="g344"><path
             id="path346"
             style="fill:#cfa60e;fill-opacity:1;fill-rule:evenodd;stroke:none"
             d="M 0,0 41.852,-27.489 40.799,-29.055 -0.429,-1.979 C -0.291,-1.32 -0.146,-0.659 0,0" /></g><g
           transform="translate(198.8511,307.2986)"
           id="g348"><path
             id="path350"
             style="fill:none;stroke:#cfa60e;stroke-width:0.21600001;stroke-linecap:butt;stroke-linejoin:miter;stroke-miterlimit:2.61299992;stroke-dasharray:none;stroke-opacity:1"
             d="M 0,0 41.852,-27.489 40.799,-29.055 -0.429,-1.979 C -0.291,-1.32 -0.146,-0.659 0,0 Z" /></g><g
           transform="translate(201.7471,318.0652)"
           id="g352"><path
             id="path354"
             style="fill:#cfa60e;fill-opacity:1;fill-rule:evenodd;stroke:none"
             d="M 0,0 39.104,-38.427 37.76,-39.749 -0.637,-2.041 C -0.428,-1.358 -0.222,-0.675 0,0" /></g><g
           transform="translate(201.7471,318.0652)"
           id="g356"><path
             id="path358"
             style="fill:none;stroke:#cfa60e;stroke-width:0.21600001;stroke-linecap:butt;stroke-linejoin:miter;stroke-miterlimit:2.61299992;stroke-dasharray:none;stroke-opacity:1"
             d="M 0,0 39.104,-38.427 37.76,-39.749 -0.637,-2.041 C -0.428,-1.358 -0.222,-0.675 0,0 Z" /></g><g
           transform="translate(206.4082,330.2117)"
           id="g360"><path
             id="path362"
             style="fill:#cfa60e;fill-opacity:1;fill-rule:evenodd;stroke:none"
             d="M 0,0 34.564,-50.749 32.977,-51.792 -0.908,-2.05 C -0.616,-1.367 -0.309,-0.677 0,0" /></g><g
           transform="translate(206.4082,330.2117)"
           id="g364"><path
             id="path366"
             style="fill:none;stroke:#cfa60e;stroke-width:0.21600001;stroke-linecap:butt;stroke-linejoin:miter;stroke-miterlimit:2.61299992;stroke-dasharray:none;stroke-opacity:1"
             d="M 0,0 34.564,-50.749 32.977,-51.792 -0.908,-2.05 C -0.616,-1.367 -0.309,-0.677 0,0 Z" /></g><g
           transform="translate(213.7935,343.6243)"
           id="g368"><path
             id="path370"
             style="fill:#cfa60e;fill-opacity:1;fill-rule:evenodd;stroke:none"
             d="M 0,0 27.251,-64.359 25.494,-65.081 -1.251,-1.944 C -0.837,-1.291 -0.431,-0.646 0,0" /></g><g
           transform="translate(213.7935,343.6243)"
           id="g372"><path
             id="path374"
             style="fill:none;stroke:#cfa60e;stroke-width:0.21600001;stroke-linecap:butt;stroke-linejoin:miter;stroke-miterlimit:2.61299992;stroke-dasharray:none;stroke-opacity:1"
             d="M 0,0 27.251,-64.359 25.494,-65.081 -1.251,-1.944 C -0.837,-1.291 -0.431,-0.646 0,0 Z" /></g><g
           transform="translate(225.0303,357.2473)"
           id="g376"><path
             id="path378"
             style="fill:#cfa60e;fill-opacity:1;fill-rule:evenodd;stroke:none"
             d="m 0,0 16.052,-78.206 -1.874,-0.36 -15.797,76.954 C -1.09,-1.075 -0.544,-0.522 0,0" /></g><g
           transform="translate(225.0303,357.2473)"
           id="g380"><path
             id="path382"
             style="fill:none;stroke:#cfa60e;stroke-width:0.21600001;stroke-linecap:butt;stroke-linejoin:miter;stroke-miterlimit:2.61299992;stroke-dasharray:none;stroke-opacity:1"
             d="m 0,0 16.052,-78.206 -1.874,-0.36 -15.797,76.954 C -1.09,-1.075 -0.544,-0.522 0,0 Z" /></g><g
           transform="translate(240.7212,368.741)"
           id="g384"><path
             id="path386"
             style="fill:#cfa60e;fill-opacity:1;fill-rule:evenodd;stroke:none"
             d="M 0,0 0.352,-89.904 -1.552,-89.913 -1.905,-1.06 C -1.275,-0.69 -0.646,-0.346 0,0" /></g><g
           transform="translate(240.7212,368.741)"
           id="g388"><path
             id="path390"
             style="fill:none;stroke:#cfa60e;stroke-width:0.21600001;stroke-linecap:butt;stroke-linejoin:miter;stroke-miterlimit:2.61299992;stroke-dasharray:none;stroke-opacity:1"
             d="M 0,0 0.352,-89.904 -1.552,-89.913 -1.905,-1.06 C -1.275,-0.69 -0.646,-0.346 0,0 Z" /></g><g
           transform="translate(260.1367,375.5667)"
           id="g392"><path
             id="path394"
             style="fill:#cfa60e;fill-opacity:1;fill-rule:evenodd;stroke:none"
             d="m 0,0 -19.113,-96.942 -1.874,0.361 18.961,96.168 C -1.367,-0.268 -0.675,-0.13 0,0" /></g><g
           transform="translate(260.1367,375.5667)"
           id="g396"><path
             id="path398"
             style="fill:none;stroke:#cfa60e;stroke-width:0.21600001;stroke-linecap:butt;stroke-linejoin:miter;stroke-miterlimit:2.61299992;stroke-dasharray:none;stroke-opacity:1"
             d="m 0,0 -19.113,-96.942 -1.874,0.361 18.961,96.168 C -1.367,-0.268 -0.675,-0.13 0,0 Z" /></g><g
           transform="translate(281.6157,376.6067)"
           id="g400"><path
             id="path402"
             style="fill:#cfa60e;fill-opacity:1;fill-rule:evenodd;stroke:none"
             d="m 0,0 -40.686,-98.179 -1.765,0.707 40.447,97.627 C -1.336,0.109 -0.662,0.063 0,0" /></g><g
           transform="translate(281.6157,376.6067)"
           id="g404"><path
             id="path406"
             style="fill:none;stroke:#cfa60e;stroke-width:0.21600001;stroke-linecap:butt;stroke-linejoin:miter;stroke-miterlimit:2.61299992;stroke-dasharray:none;stroke-opacity:1"
             d="m 0,0 -40.686,-98.179 -1.765,0.707 40.447,97.627 C -1.336,0.109 -0.662,0.063 0,0 Z" /></g><g
           transform="translate(303.1421,371.3216)"
           id="g408"><path
             id="path410"
             style="fill:#cfa60e;fill-opacity:1;fill-rule:evenodd;stroke:none"
             d="m 0,0 -62.324,-93.067 -1.603,1.037 62.13,92.768 C -1.19,0.499 -0.598,0.246 0,0" /></g><g
           transform="translate(303.1421,371.3216)"
           id="g412"><path
             id="path414"
             style="fill:none;stroke:#cfa60e;stroke-width:0.21600001;stroke-linecap:butt;stroke-linejoin:miter;stroke-miterlimit:2.61299992;stroke-dasharray:none;stroke-opacity:1"
             d="m 0,0 -62.324,-93.067 -1.603,1.037 62.13,92.768 C -1.19,0.499 -0.598,0.246 0,0 Z" /></g><g
           transform="translate(322.021,359.2859)"
           id="g416"><path
             id="path418"
             style="fill:#cfa60e;fill-opacity:1;fill-rule:evenodd;stroke:none"
             d="m 0,0 -81.368,-81.175 -1.358,1.32 81.298,81.1 C -0.942,0.838 -0.468,0.422 0,0" /></g><g
           transform="translate(322.021,359.2859)"
           id="g420"><path
             id="path422"
             style="fill:none;stroke:#cfa60e;stroke-width:0.21600001;stroke-linecap:butt;stroke-linejoin:miter;stroke-miterlimit:2.61299992;stroke-dasharray:none;stroke-opacity:1"
             d="m 0,0 -81.368,-81.175 -1.358,1.32 81.298,81.1 C -0.942,0.838 -0.468,0.422 0,0 Z" /></g><g
           transform="translate(336.4434,342.0989)"
           id="g424"><path
             id="path426"
             style="fill:#cfa60e;fill-opacity:1;fill-rule:evenodd;stroke:none"
             d="m 0,0 -95.975,-64.104 -1.075,1.549 96.023,64.143 C -0.667,1.068 -0.329,0.537 0,0" /></g><g
           transform="translate(336.4434,342.0989)"
           id="g428"><path
             id="path430"
             style="fill:none;stroke:#cfa60e;stroke-width:0.21600001;stroke-linecap:butt;stroke-linejoin:miter;stroke-miterlimit:2.61299992;stroke-dasharray:none;stroke-opacity:1"
             d="m 0,0 -95.975,-64.104 -1.075,1.549 96.023,64.143 C -0.667,1.068 -0.329,0.537 0,0 Z" /></g><g
           transform="translate(346.1714,322.01)"
           id="g432"><path
             id="path434"
             style="fill:#cfa60e;fill-opacity:1;fill-rule:evenodd;stroke:none"
             d="m 0,0 -105.91,-44.093 -0.744,1.737 L -0.652,1.773 C -0.428,1.182 -0.215,0.592 0,0" /></g><g
           transform="translate(346.1714,322.01)"
           id="g436"><path
             id="path438"
             style="fill:none;stroke:#cfa60e;stroke-width:0.21600001;stroke-linecap:butt;stroke-linejoin:miter;stroke-miterlimit:2.61299992;stroke-dasharray:none;stroke-opacity:1"
             d="m 0,0 -105.91,-44.093 -0.744,1.737 L -0.652,1.773 C -0.428,1.182 -0.215,0.592 0,0 Z" /></g><g
           transform="translate(351.7031,300.614)"
           id="g440"><path
             id="path442"
             style="fill:#cfa60e;fill-opacity:1;fill-rule:evenodd;stroke:none"
             d="m 0,0 -111.659,-22.73 -0.383,1.843 L -0.322,1.85 C -0.216,1.236 -0.1,0.623 0,0" /></g><g
           transform="translate(351.7031,300.614)"
           id="g444"><path
             id="path446"
             style="fill:none;stroke:#cfa60e;stroke-width:0.21600001;stroke-linecap:butt;stroke-linejoin:miter;stroke-miterlimit:2.61299992;stroke-dasharray:none;stroke-opacity:1"
             d="m 0,0 -111.659,-22.73 -0.383,1.843 L -0.322,1.85 C -0.216,1.236 -0.1,0.623 0,0 Z" /></g><g
           transform="translate(353.5332,278.7522)"
           id="g448"><path
             id="path450"
             style="fill:#cfa60e;fill-opacity:1;fill-rule:evenodd;stroke:none"
             d="m 0,0 -113.703,-0.859 -0.015,1.88 L -0.024,1.88 C -0.009,1.251 0,0.629 0,0" /></g><g
           transform="translate(353.5332,278.7522)"
           id="g452"><path
             id="path454"
             style="fill:none;stroke:#cfa60e;stroke-width:0.21600001;stroke-linecap:butt;stroke-linejoin:miter;stroke-miterlimit:2.61299992;stroke-dasharray:none;stroke-opacity:1"
             d="m 0,0 -113.703,-0.859 -0.015,1.88 L -0.024,1.88 C -0.009,1.251 0,0.629 0,0 Z" /></g><g
           transform="translate(240.1177,307.4182)"
           id="g456"><path
             id="path458"
             style="fill:#cfa60e;fill-opacity:1;fill-rule:evenodd;stroke:none"
             d="M 0,0 C 16.092,0 29.132,-12.819 29.132,-28.631 H -29.129 C -29.129,-12.819 -16.089,0 0,0" /></g><g
           transform="translate(240.1177,304.949)"
           id="g460"><path
             id="path462"
             style="fill:#fbcc00;fill-opacity:1;fill-rule:evenodd;stroke:none"
             d="M 0,0 C 14.762,0 26.739,-11.431 26.739,-25.531 H -26.727 C -26.727,-11.431 -14.759,0 0,0" /></g></g></g><g
       id="g464"><g
         id="g466"><g
           id="g472"><g
             id="g474"><path
               id="path484"
               style="fill:url(#linearGradient482);stroke:none"
               d="m 195.718,278.136 c 0.017,-3.747 0.184,-7.5 0.5,-11.215 v 0 c 18.269,-0.582 41.798,0.5 42.373,-2.97 v 0 c 0.076,-0.461 1.044,-0.224 1.88,0.016 v 0 c 0.877,0.245 1.612,0.498 1.16,-0.016 v 0 c -8.361,-9.265 1.995,-25.257 12.566,-33.462 v 0 c 32.87,-25.483 20.849,-39.809 -5.774,-45.566 v 0 c 7.863,-2.978 16.581,-4.613 26.207,-4.613 v 0 c 30.345,0 51.893,16.265 64.72,39.426 v 0 c -19.674,7.799 -52.982,11.875 -60.705,29.36 v 0 c -2.556,5.751 13.149,16.644 15.591,21.341 v 0 c 4.743,9.09 -26.077,7.156 -25.239,7.791 v 0 l -72.727,0.392 c 0.247,-0.015 0,-0.183 -0.552,-0.484" /></g></g></g></g><g
       id="g486"><g
         id="g488"><g
           id="g494"><g
             id="g496"><path
               id="path506"
               style="fill:url(#linearGradient504);stroke:none"
               d="m 195.727,278.605 v 0.521 c -4.077,-21.615 5.31,-55.138 24.916,-76.07 v 0 c 16.082,-17.165 38.912,-24.573 48.2,-23.223 v 0 c 0.667,0.094 1.312,0.055 1.88,0 v 0 c 0.999,-0.076 1.789,-0.167 2.149,0.532 v 0 c 20.235,38.126 -53.541,80.793 -1.126,97.74 v 0 c 3.592,1.16 -2.973,1.52 -13.766,1.52 v 0 c -18.139,0 -48.236,-1.02 -62.253,-1.02" /></g></g></g></g><g
       id="g508"><g
         id="g510"><g
           id="g516"><g
             id="g518"><path
               id="path528"
               style="fill:url(#linearGradient526);stroke:none"
               d="m 344.135,324.171 h -0.022 -0.021 -0.022 -0.022 -0.085 c -18.645,-0.2 -16.927,-21.969 -29.791,-23.32 v 0 c -3.048,-0.321 -10.625,2.242 -15.906,3.077 v 0 c -7.139,1.144 -21.088,-15.789 -24.373,-24.963 v 0 h 79.635 c -0.054,15.567 -2.78,31.112 -8.122,45.091 v 0 c -0.409,0.065 -0.828,0.108 -1.251,0.115 v 0 z" /></g></g></g></g><g
       id="g530"><g
         clip-path="url(#clipPath536)"
         id="g532"><g
           transform="translate(228.3198,222.3909)"
           id="g538"><path
             id="path540"
             style="fill:#ffffff;fill-opacity:1;fill-rule:evenodd;stroke:none"
             d="M 0,0 C -10.477,21.324 -5.113,34.521 9.481,42.65 2.849,30.92 12.521,21.026 26.536,10.072 16.635,8.045 7.316,5.113 0.362,0.209 Z" /></g></g></g><g
       id="g542"><g
         id="g544"><g
           id="g550"><g
             id="g552"><path
               id="path562"
               style="fill:url(#linearGradient560);stroke:none"
               d="m 279.337,234.744 c 12.95,-13.511 36.684,-15.315 54.109,-24.328 v 0 c 13.119,18.07 19.798,42.19 20.066,66.454 v 0 0.814 l -79.358,0.936 c -7.231,-11.262 -11.144,-26.828 5.183,-43.876" /></g></g></g></g><g
       id="g564"><g
         id="g566"><g
           id="g572"><g
             id="g574"><path
               id="path584"
               style="fill:url(#linearGradient582);stroke:none"
               d="m 335.925,300.145 c -6.732,-0.785 -11.3,-11.722 -24.418,-19.843 v 0 h 41.989 c -0.077,5.794 -0.52,11.576 -1.327,17.279 v 0 c -4.061,0.528 -10.28,2.05 -14.654,2.564 v 0 z" /></g></g></g></g><g
       id="g586"><g
         clip-path="url(#clipPath592)"
         id="g588"><path
           id="path594"
           style="fill:#fbcc00;fill-opacity:1;fill-rule:nonzero;stroke:none"
           d="m 234.454,326.251 h 10.569 v 5.52 h -10.569 z" /><path
           id="path596"
           style="fill:none;stroke:#fbcc00;stroke-width:0.21600001;stroke-linecap:butt;stroke-linejoin:miter;stroke-miterlimit:2.61299992;stroke-dasharray:none;stroke-opacity:1"
           d="m 234.447,331.774 h 10.571 v -5.518 h -10.571 z" /><g
           transform="translate(278.106,343.7869)"
           id="g598"><path
             id="path600"
             style="fill:#ffffff;fill-opacity:1;fill-rule:evenodd;stroke:none"
             d="m 0,0 c 6.854,0.13 13.748,-0.094 20.179,-2.411 4.998,-1.803 6.925,-1.727 11.531,-6.049 l -7.009,-4.391 C 17.662,-5.043 8.849,-3.687 -0.216,-1.075 -4.015,0.022 -3.869,-0.078 0,0" /></g><g
           transform="translate(306.7085,335.3621)"
           id="g602"><path
             id="path604"
             style="fill:#ffffff;fill-opacity:1;fill-rule:evenodd;stroke:none"
             d="M 0,0 C 5.665,-0.385 12.151,3.875 14.853,4.397 15.767,4.558 17.465,2.924 16.666,2.156 16.144,1.658 13.064,0.52 12.198,0.067 c -0.57,-0.291 4.338,2.257 4.975,2.165 1.381,-0.215 2.225,-2.456 1.619,-2.916 0,0 -4.383,-1.174 -5.688,-1.773 -1.221,-0.546 3.638,1.673 5.688,1.773 0.729,0.031 1.558,-2.258 0.521,-2.918 -3.078,-1.979 -7.162,-2.065 -10.416,-3.492 1.244,-4.889 4.459,-10.47 4.298,-15.53 -0.252,-7.875 -4.607,-15.253 -5.934,-22.63 -0.528,-2.885 -0.16,-3.629 -0.759,-0.282 -1.728,9.625 -2.387,26.696 -6.894,33.022 -1.843,1.166 -3.216,2.165 -5.487,2.954 -1.199,0.486 -2.988,0.501 -5.284,0.693 -1.233,-0.338 -4.212,-0.999 -5.441,-1.336 0.4,2.295 2.203,8.773 6.564,8.229 z" /></g><g
           transform="translate(308.6406,246.4895)"
           id="g606"><path
             id="path608"
             style="fill:#b49776;fill-opacity:1;fill-rule:evenodd;stroke:none"
             d="M 0,0 -0.176,-2.739 3.563,-5.457 3.44,-2.558 Z m -0.167,-5.02 -0.164,-2.687 4.017,-2.946 -0.094,2.831 z m -0.179,-5.029 -0.145,-2.739 4.338,-3.164 -0.085,2.857 z m -0.161,-5.019 -0.145,-2.642 4.682,-3.493 -0.092,2.827 z m -0.176,-5.02 -0.122,-2.673 5.035,-3.662 -0.115,2.764 z m -0.168,-5.028 -0.13,-2.573 5.348,-4.03 -0.03,2.787 z m -0.169,-5.022 -0.131,-2.617 5.713,-4.145 -0.125,2.703 z m -0.177,-5.018 -0.091,-2.564 5.925,-4.384 -0.06,2.647 z m -0.169,-5.021 -0.092,-2.511 0.292,-0.215 H 2.288 Z M 0.161,4.813 0,2.266 3.377,-0.216 3.301,2.688 0.27,4.95 Z" /></g><g
           transform="translate(307.3394,216.0608)"
           id="g610"><path
             id="path612"
             style="fill:none;stroke:#b49776;stroke-width:0.21600001;stroke-linecap:butt;stroke-linejoin:miter;stroke-miterlimit:2.61299992;stroke-dasharray:none;stroke-opacity:1"
             d="m 0,0 -0.084,-2.502 5.626,-4.185 -0.078,2.625 z m -0.169,-5.014 -0.092,-2.516 5.916,-4.407 -0.052,2.618 z m -0.177,-5.035 -0.093,-2.502 0.291,-0.209 h 3.464 z" /></g></g></g><g
       id="g614"><g
         id="g616"><g
           id="g622"><g
             id="g624"><path
               id="path634"
               style="fill:url(#linearGradient632);stroke:none"
               d="m 228.451,315.127 v -35.056 h 23.373 l -0.061,35.056 z" /></g></g></g></g><g
       id="g636"><g
         id="g638"><g
           id="g644"><g
             id="g646"><path
               id="path656"
               style="fill:url(#linearGradient654);stroke:none"
               d="m 240.048,341.38 c -1.412,-0.006 -2.141,-1.779 -3.246,-3.146 v 0 c -1.145,-1.436 -2.241,-2.341 -2.241,-2.341 v 0 l -0.107,-14.346 0.523,-0.653 -0.316,-5.084 9.939,-0.13 -0.328,5.236 2.08,0.437 -0.239,4.99 -0.213,8.167 c 0,0 -2.457,2.418 -3.471,3.894 v 0 c -0.914,1.327 -0.316,2.976 -2.365,2.976 v 0 z" /></g></g></g></g><g
       id="g658"><g
         clip-path="url(#clipPath664)"
         id="g660"><path
           id="path666"
           style="fill:#fbcc00;fill-opacity:1;fill-rule:nonzero;stroke:none"
           d="m 235.074,327.104 h 9.496 v 4.406 h -9.496 z" /><g
           transform="translate(237.1475,450.0452)"
           id="g668"><path
             id="path670"
             style="fill:#eedcb8;fill-opacity:1;fill-rule:evenodd;stroke:none"
             d="M 0,0 C 3.921,-0.231 7.445,-2.67 7.161,-5.87 6.892,-9.074 5.011,-23.887 5.011,-23.887 l -15.788,-1.145 2.87,20.358 c 0,0 3.991,4.905 7.907,4.674" /></g><g
           transform="translate(233.127,443.4763)"
           id="g672"><path
             id="path674"
             style="fill:#77522f;fill-opacity:1;fill-rule:nonzero;stroke:none"
             d="m 0,0 c -0.498,-5.42 -1.204,-9.119 -1.695,-14.547 2.785,0.238 4.743,0.261 6.9,0.453 0.668,5.335 1.214,9.281 1.873,14.623 C 5.72,3.653 2.135,3.215 0,0" /></g><g
           transform="translate(317.4707,428.9344)"
           id="g676"><path
             id="path678"
             style="fill:#77522f;fill-opacity:1;fill-rule:nonzero;stroke:none"
             d="m 0,0 c -0.499,5.42 -1.205,9.128 -1.695,14.546 -2.143,3.21 -5.721,3.638 -7.087,0.522 C -8.114,9.732 -7.583,5.781 -6.899,0.452 -4.752,0.246 -2.793,0.222 0,0" /></g><g
           transform="translate(284.9687,420.1238)"
           id="g680"><path
             id="path682"
             style="fill:#77522f;fill-opacity:1;fill-rule:nonzero;stroke:none"
             d="m 0,0 -0.139,1.973 c -0.592,6.934 -1.097,18.002 -9.787,18.002 -8.537,0 -8.959,-11.461 -9.497,-18.269 l -0.084,-1.643 z" /></g><g
           transform="translate(256.9902,439.3074)"
           id="g684"><path
             id="path686"
             style="fill:#77522f;fill-opacity:1;fill-rule:nonzero;stroke:none"
             d="m 0,0 0.653,7.728 c 11.599,0.386 23.228,0.438 34.835,0.04 l 0.644,-7.647 -7.86,0.162 c 0.438,-0.651 0.83,-1.343 1.166,-2.066 L 47.34,-2.502 c 0.322,-2.451 0.637,-4.899 0.952,-7.347 l -16.688,0.629 0.139,-0.874 C 30.468,-2.12 27.488,5.541 18.117,5.541 13.243,5.541 10.125,3.385 8.06,0.215 Z m -2.095,-0.077 c -3.355,-0.124 -6.709,-0.285 -10.064,-0.462 0.2,1.538 0.392,3.065 0.583,4.599 l 0.177,1.397 -0.568,1.29 -0.169,0.368 C -8.573,7.322 -5.004,7.5 -1.442,7.637 Z M -13.417,9.08 c -0.99,1.145 -2.258,2.034 -3.753,2.511 l 0.705,4.182 c 11.193,0.899 22.423,1.382 33.699,1.414 l 0.008,-7.108 C 7.009,10.024 -3.207,9.711 -13.417,9.08 M -14.17,4.382 c -0.622,-4.881 -1.275,-9.749 -1.895,-14.622 l -0.255,-2.059 -2.086,-0.191 c -2.305,-0.222 -4.631,-0.268 -6.948,-0.459 l -3.094,-0.255 0.276,3.064 c 0.446,4.865 1.251,9.679 1.697,14.537 l 0.055,0.638 0.359,0.546 c 1.658,2.494 4.661,4.467 7.792,3.638 1.828,-0.483 3.155,-1.804 3.893,-3.501 l 0.282,-0.644 z m -14.915,0.246 c -0.199,-2.141 -0.46,-4.283 -0.737,-6.426 -3.054,-0.267 -6.109,-0.553 -9.158,-0.866 l 1.965,7.659 c 2.679,0.301 5.359,0.571 8.037,0.83 z m -1.696,-14.531 -0.115,-1.166 c -9.005,-0.714 -18.008,-1.652 -26.967,-2.819 l 3.077,7.262 0.124,0.015 c 8.166,1.114 16.366,2.019 24.579,2.748 -0.269,-2.011 -0.522,-4.03 -0.698,-6.04 m -19.751,13.225 0.106,0.016 11.209,1.413 -1.959,-7.645 -12.672,-1.543 z m 3.86,9.074 c 9.35,1.33 18.7,2.42 28.072,3.201 l -0.614,-3.623 c -3.301,0.2 -6.41,-1.589 -8.436,-4.161 L -49.597,5.511 Z m -6.387,1.527 c -2.265,1.674 -3.684,2.697 -5.948,4.376 53.641,8.475 99.961,8.284 154.079,-0.167 l -5.068,-4.354 -26.138,3.44 c -38.91,4.067 -76.016,3.047 -116.925,-3.295 m -6.385,6.742 c -3.723,7.1 -2.933,4.522 -2.933,12.963 5.957,1.152 11.921,2.205 17.879,3.165 v -7.471 c 5.956,0.829 11.92,1.559 17.893,2.196 v 7.592 c 5.956,0.577 11.904,1.059 17.886,1.443 v -7.678 c 5.955,0.277 11.914,0.486 17.893,0.616 v 7.706 c 5.949,0.07 11.898,0.078 17.871,0.024 v -7.692 c 5.964,-0.107 11.919,-0.283 17.893,-0.544 v 7.644 c 5.949,-0.368 11.905,-0.844 17.886,-1.419 v -7.561 c 5.956,-0.638 11.914,-1.376 17.884,-2.226 v 7.436 c 5.949,-0.974 11.929,-2.055 17.902,-3.231 0,-8.688 0.806,-5.687 -3.049,-13.094 -26.475,4.136 -52.995,6.563 -79.815,6.478 -25.242,-0.07 -50.235,-2.357 -75.151,-6.295 z m 17.44,16.235 8.451,-3.685 c -2.824,-0.34 -5.634,-0.698 -8.451,-1.068 z m 35.772,3.224 4.72,-4.491 c -1.573,-0.061 -3.147,-0.115 -4.72,-0.185 z m 48.682,0 v -4.582 c -1.557,0.067 -3.093,0.128 -4.636,0.176 z m 35.871,-3.064 -0.1,-4.819 c -2.74,0.382 -5.481,0.736 -8.129,1.236 z M 85.375,5.572 85.015,5.626 62.399,8.029 c -1.755,2.126 -4.266,3.677 -6.99,3.923 l -0.616,3.653 c 9.219,-0.774 18.402,-1.842 27.573,-3.164 z m 4.307,-9.787 -0.368,0.054 -12.058,1.489 -1.913,7.485 11.007,-1.437 z m 4.16,-9.456 -0.367,0.038 c -9.196,1.227 -18.431,2.141 -27.689,2.846 l -0.085,0.884 c -0.198,2.134 -0.46,4.252 -0.736,6.38 8.589,-0.714 17.171,-1.652 25.692,-2.894 z M 64.005,4.628 63.882,5.918 63.806,6.034 C 66.93,5.742 70.031,5.42 73.147,5.05 l 1.912,-7.476 c -3.455,0.346 -6.902,0.676 -10.355,0.959 -0.261,2.034 -0.515,4.06 -0.699,6.095 m -3.731,-17.577 c -2.317,0.191 -4.644,0.237 -6.94,0.459 l -2.094,0.191 -0.262,2.059 c -0.622,4.873 -1.266,9.741 -1.88,14.622 l -0.091,0.692 0.283,0.644 c 0.738,1.697 2.065,3.018 3.908,3.501 3.115,0.829 6.125,-1.144 7.783,-3.638 l 0.352,-0.546 0.055,-0.638 c 0.444,-4.858 1.251,-9.672 1.695,-14.537 l 0.285,-3.064 z M 46.496,4.06 c 0.185,-1.458 0.368,-2.915 0.559,-4.368 -2.947,0.138 -5.886,0.268 -8.834,0.369 L 37.567,7.698 C 40.753,7.583 43.939,7.446 47.134,7.269 L 46.887,6.747 46.319,5.457 Z m 1.958,5.15 c -9.711,0.554 -19.422,0.845 -29.14,0.869 l -0.007,7.108 c 11.13,-0.032 22.284,-0.507 33.36,-1.396 l 0.662,-3.902 -0.814,-0.177 C 50.878,11.284 49.512,10.394 48.454,9.21 M 18.117,3.501 c 11.292,0 11.576,-13.511 12.466,-21.947 -0.016,0 0.106,-0.422 0.091,-0.422 l -0.107,-0.254 h 2.187 l -0.06,0.646 h -0.015 c -0.192,2.247 -0.408,4.727 -0.76,7.206 l 5.196,-0.115 0.69,-7.216 v -0.005 H 37.79 l 0.154,-0.516 h 2.011 l -0.045,0.446 h -0.016 l -0.69,7.245 c 3.116,-0.107 6.226,-0.23 9.333,-0.367 l 0.36,-2.873 4.177,-0.392 c 2.32,-0.221 4.652,-0.276 6.969,-0.458 l 6.219,-0.501 -0.291,3.186 c 4.014,-0.298 8.013,-0.651 12.013,-1.052 l 1.95,-7.598 0.252,-1.168 2.019,-0.076 -0.313,1.942 -1.706,6.679 14.616,-1.749 3.186,-7.255 0.306,-0.699 h -0.022 l 0.231,-0.568 c 0,0 1.367,-0.185 2.488,-0.346 l 0.03,0.507 c -0.03,0 -0.046,0.006 -0.062,0.006 l -15.929,36.265 5.635,-0.868 5.91,4.99 4.237,8.988 c 0.731,1.467 0.285,8.282 0.285,10.471 -3.286,0.653 -21.448,4.321 -22.876,4.13 L 65.303,33.966 v 7.477 L 42.45,43.247 V 43.17 l -7.868,-7.352 -5.043,0.121 v 7.714 L 6.678,43.631 v -7.746 l -4.974,-0.145 -7.936,7.43 -22.86,-1.849 v -7.369 l -12.912,5.735 c -1.497,0.191 -19.528,-3.401 -22.861,-4.039 0,-2.189 -0.444,-8.982 0.27,-10.447 5.305,-10.862 1.457,-6.887 10.884,-13.865 l 4.406,0.668 -15.582,-36.545 c -0.099,-0.285 -0.039,-0.194 -0.109,-0.2 l 0.049,-0.507 2.341,0.337 0.297,0.507 h -0.114 l 3.623,8.337 0.115,0.014 14.585,1.722 -1.995,-7.847 -0.085,-0.26 -0.131,-1.52 h 1.896 l 0.937,3.693 1.567,6.156 c 3.615,0.36 7.222,0.689 10.829,0.975 l -0.26,-2.888 6.218,0.501 c 2.317,0.182 4.644,0.237 6.962,0.458 l 4.184,0.392 0.33,2.672 c 3.532,0.177 7.055,0.322 10.571,0.437 l -0.546,-5.696 -0.222,-2.709 h 2.041 l 0.1,0.914 c -0.015,0 0.031,0.231 0.024,0.231 v 0.006 l 0.699,7.315 5.348,0.14 0.324,2.057 -18.086,-0.76 c 0.307,2.457 0.638,4.905 0.944,7.346 L 6.924,-1.85 C 4.707,-6.603 4.169,-12.766 3.669,-17.586 l -0.192,-1.959 h 2.089 l 0.091,1.021 v -0.007 c 0.875,8.291 1.421,22.032 12.46,22.032" /></g><path
           id="path688"
           style="fill:#495961;fill-opacity:1;fill-rule:nonzero;stroke:none"
           d="m 243.188,302.609 h -5.558 v -5.366 h 5.558 z" /><g
           transform="translate(237.3525,264.5149)"
           id="g690"><path
             id="path692"
             style="fill:#495961;fill-opacity:1;fill-rule:nonzero;stroke:none"
             d="M 0,0 C -6.618,-11.691 2.824,-21.071 16.78,-31.971 6.923,-33.981 -2.011,-36.9 -8.943,-41.783 -18.876,-21.801 -14.546,-8.09 0,0 m 13.419,-45.199 c 1.036,0.993 1.036,1.982 0,2.979 H 8.904 l 0.039,0.254 v 2.448 c 0,0.578 -0.477,1.037 -1.059,1.037 H 5.39 c -0.577,0 -1.054,-0.459 -1.054,-1.037 v -2.448 L 4.382,-42.22 H -5.88 c 6.863,4.261 15.261,6.648 23.083,8.254 l 4.345,0.881 -3.479,2.712 c -6.162,4.818 -17.24,13.355 -18.093,21.685 -0.283,2.739 0.492,5.303 1.836,7.689 L 5.42,5.357 -1.014,1.788 C -19.223,-8.351 -19.405,-25.078 -11.039,-42.22 h -2.632 v 1.542 h -3.517 v -1.542 h -3.96 c -1.036,-0.813 -1.036,-1.795 0,-2.979 11.108,-1.834 22.645,-1.834 34.567,0" /></g><g
           transform="translate(296.7363,331.1121)"
           id="g694"><path
             id="path696"
             style="fill:#495961;fill-opacity:1;fill-rule:nonzero;stroke:none"
             d="m 0,0 c -0.522,0.03 -0.983,-0.369 -1.022,-0.914 -0.038,-0.553 0.36,-1.029 0.883,-1.06 0.53,-0.045 0.983,0.362 1.02,0.906 C 0.927,-0.522 0.529,-0.048 0,0" /></g><g
           transform="translate(275.1353,98.9905)"
           id="g698"><path
             id="path700"
             style="fill:#495961;fill-opacity:1;fill-rule:nonzero;stroke:none"
             d="m 0,0 c -20.31,38.804 -142.178,61.609 -142.178,119.819 0,58.208 61.563,100.996 0.628,139.792 l 40.003,50.84 c 71.719,12.066 139.346,12.136 203.097,0 l 40.003,-50.84 c -60.936,-38.796 0.62,-81.584 0.62,-139.792 C 142.173,61.609 20.313,38.804 0,0 m 117.571,223.494 c 1.734,15.451 12.666,26.062 25.309,34.106 l 2.241,1.436 -42.211,53.595 -0.89,0.177 c -5.052,0.951 -10.103,1.835 -15.154,2.633 -15.405,2.08 -26.298,3.462 -35.839,4.398 -2.612,0.23 -5.22,0.436 -7.832,0.628 l -0.261,0.018 -2.356,0.167 -0.629,0.046 -0.623,0.039 c -5.818,0.377 -11.643,0.668 -17.477,0.86 h -0.055 v 0.015 c -0.683,0.024 -1.381,0.046 -2.088,0.06 v -0.005 c -0.574,0.015 -1.166,0.03 -1.749,0.045 -21.34,0.453 -40.21,-0.276 -53.636,-1.096 -4.65,-0.277 -34.735,-3.28 -40.331,-3.948 l -0.911,-0.116 c -6.826,-0.934 -20.857,-3.106 -25.985,-3.913 l -42.212,-53.603 2.241,-1.436 c 12.636,-8.044 23.574,-18.655 25.309,-34.106 1.703,-15.144 -6.472,-32.779 -12.199,-46.562 -7.683,-18.51 -14.844,-36.77 -14.844,-57.113 0,-4.377 0.653,-8.673 1.956,-12.851 4.191,-13.532 14.631,-24.416 25.616,-33.069 12.811,-10.093 27.682,-18.363 42.097,-26.015 14.984,-7.945 30.504,-15.46 44.975,-24.273 9.642,-5.88 22.484,-14.553 27.804,-24.701 L 0,-5.235 2.166,-1.09 c 5.32,10.148 18.162,18.821 27.804,24.701 14.469,8.813 29.983,16.328 44.974,24.273 14.416,7.652 29.286,15.922 42.09,26.015 10.992,8.653 21.424,19.537 25.631,33.069 1.29,4.178 1.949,8.474 1.949,12.851 0,20.343 -7.161,38.603 -14.844,57.113 -5.728,13.783 -13.911,31.418 -12.199,46.562" /></g><g
           transform="translate(214.8921,471.3304)"
           id="g702"><path
             id="path704"
             style="fill:#eedcb8;fill-opacity:1;fill-rule:evenodd;stroke:none"
             d="M 0,0 8.897,1.153 0,5.021 Z" /></g><g
           transform="translate(377.3203,179.8333)"
           id="g706"><path
             id="path708"
             style="fill:#495961;fill-opacity:1;fill-rule:nonzero;stroke:none"
             d="m 0,0 -36.486,35.992 c 26.944,44.999 20.143,117.656 -20.587,148.83 -13.143,10.063 -28.579,14.861 -45.183,14.861 -29.084,0 -50.448,-14.479 -64.058,-35.649 l -41.628,41.052 10.816,13.534 c 62.952,10.147 126.811,11.468 189.671,0.107 L 22.6,181.138 C 11.207,171.663 2.74,159.774 0.996,144.299 -1.075,125.89 7.061,107.383 13.984,90.709 20.848,74.191 27.75,57.164 27.75,39.032 27.75,23.958 14.93,10.685 0,0 m -98.503,162.798 c -3.784,1.091 -3.63,0.991 0.225,1.067 6.823,0.13 13.494,-0.484 19.896,-2.795 2.77,-0.989 5.488,-2.31 8.145,-4.023 l -0.431,0.015 -0.283,0.024 -7.792,-1.596 c -5.98,4.038 -12.788,5.296 -19.76,7.308 m 18.148,-9.726 9.541,1.965 c 5.651,-0.391 12.283,4.245 14.968,4.743 0.599,0.124 1.513,-0.489 1.835,-1.142 l -5.634,-2.642 0.707,-1.473 6.111,2.894 c 0.713,-0.561 1.135,-1.621 1.035,-2.21 l -6.556,-1.574 0.37,-1.597 6.93,1.612 c 0.161,-0.63 0.109,-1.366 -0.407,-1.697 -3.061,-1.965 -7.13,-2.056 -10.371,-3.476 1.23,-4.875 4.431,-10.433 4.277,-15.462 -0.022,-0.528 -0.061,-1.043 -0.116,-1.573 l -3.569,7.423 -1.505,-0.705 4.652,-9.511 c -0.346,-1.752 -0.835,-3.486 -1.388,-5.205 l -3.647,12.35 -1.588,-0.452 4.336,-14.57 c -1.205,-3.468 -2.48,-6.894 -3.094,-10.316 -0.514,-2.879 -0.007,-3.516 -0.614,-0.185 -1.718,9.587 -1.819,26.529 -6.316,32.83 -1.828,1.16 -3.885,2.135 -6.15,2.927 -1.205,0.475 -2.933,0.811 -5.228,0.99 -1.237,-0.324 -3.56,-0.822 -4.796,-1.159 0.406,2.295 1.871,7.752 6.217,7.215 m 54.026,-33.122 c -2.019,0.328 -4.032,0.735 -6.033,1.127 -2.32,0.446 -4.683,0.907 -7.04,1.19 -0.89,0.107 -1.782,0.076 -2.672,-0.092 -4.261,-0.798 -7.875,-4.967 -10.693,-7.962 -4.345,-4.612 -8.429,-8.627 -13.893,-12.013 l -3.271,-1.756 -32.408,0.383 c 4.206,9.365 16.903,24.249 23.603,23.183 3.263,-0.523 7.631,-1.858 11.198,-2.709 0.386,-3.808 0.747,-7.661 1.415,-11.378 0.237,-1.343 0.146,-4.021 2.448,-3.937 2.265,0.077 2.011,2.77 2.25,4.116 0.751,4.166 2.348,8.096 3.705,12.134 8.239,5.373 8.546,21.763 24.498,21.938 0.474,0.01 0.96,-0.036 1.434,-0.115 2.939,-7.689 5.083,-15.874 6.418,-24.264 z m 2.625,-19.469 -0.007,-0.006 h 0.007 v -0.009 h -0.016 -0.155 -41.68 c 14.078,8.713 18.276,20.665 25.914,19.766 4.354,-0.507 10.533,-2.019 14.579,-2.541 v 0.008 l 0.006,-0.008 c 0.807,-5.618 1.26,-11.345 1.352,-17.064 z M -84.109,65.264 -85.852,62.2 -87.371,61.894 Z m 3.793,17.24 -2.242,3.556 1.443,-0.592 z m 26.213,0 0.745,2.778 1.344,0.546 z m 4.306,-17.24 3.271,-3.37 -1.521,0.306 z M -62.776,38.213 c -0.14,4.266 -0.276,8.536 -0.422,12.796 l 1.464,3.352 -0.061,-4.688 1.652,-0.024 0.067,4.467 1.613,-4.213 1.551,0.576 -1.713,4.475 3.21,-3.331 1.206,1.127 -0.553,0.561 0.475,4.829 1.266,-4.683 1.605,0.416 -1.229,4.573 2.712,-3.853 1.366,0.938 -3.034,4.282 4.185,-2.649 0.89,1.373 -3.914,2.488 1.32,-0.277 0.475,-0.835 0.959,0.537 1.783,-0.361 0.343,1.603 -0.483,0.094 0.999,0.951 -4.015,4.146 4.913,-2.834 0.845,1.406 -5.405,3.109 6.034,-1.335 0.361,1.596 -4.968,1.106 5.09,0.176 -0.055,1.628 -5.687,-0.194 5.459,1.768 -0.516,1.548 -5.418,-1.749 2.755,1.843 h 0.015 v 0.006 l 2.043,1.366 -0.928,1.352 -1.514,-1.005 -4.044,0.629 5.266,0.577 -0.185,1.627 -5.965,-0.653 5.388,2.311 -0.666,1.504 -5.42,-2.327 4.467,3.817 -1.09,1.228 -4.444,-3.794 3.17,5.038 -1.405,0.859 -0.06,-0.108 -0.225,0.531 -1.588,-0.647 0.231,0.86 -0.584,0.148 1.082,0.79 -0.991,1.32 -5.174,-3.785 3.839,4.937 -1.319,0.99 -4.185,-5.376 2.296,6.29 -1.558,0.559 -1.934,-5.303 0.504,5.609 -1.649,0.146 -0.553,-6.194 -1.235,6.157 -1.628,-0.321 1.221,-6.095 -1.95,3.729 0.729,1.391 -1.482,0.75 -0.183,-0.343 -0.054,0.107 -1.473,-0.753 0.598,-1.152 -1.828,-3.501 1.221,6.094 -1.619,0.316 -1.236,-6.14 -0.552,6.187 -1.652,-0.146 0.492,-5.603 -1.926,5.296 -1.56,-0.553 2.295,-6.302 -4.175,5.389 -1.321,-0.997 3.832,-4.929 -5.183,3.775 -0.975,-1.311 1.351,-0.991 -0.698,-0.185 0.185,-0.665 -1.697,0.683 -0.329,-0.785 -1.214,-0.728 3.179,-5.038 -4.446,3.794 -1.081,-1.228 4.467,-3.817 -5.42,2.327 -0.668,-1.504 5.389,-2.311 -5.964,0.653 -0.184,-1.627 5.265,-0.577 -3.614,-0.56 -1.429,0.936 -0.921,-1.352 1.451,-0.973 0.061,-0.399 0.437,0.07 2.855,-1.913 -5.411,1.749 -0.513,-1.548 5.457,-1.768 -5.689,0.194 -0.06,-1.628 5.096,-0.176 -4.966,-1.106 0.353,-1.596 6.043,1.335 -5.397,-3.109 0.829,-1.406 4.927,2.834 -4.022,-4.146 0.99,-0.951 -0.476,-0.094 0.346,-1.603 1.773,0.361 0.967,-0.537 0.476,0.835 1.32,0.277 -3.914,-2.488 0.897,-1.373 4.169,2.649 -3.025,-4.282 1.367,-0.938 2.709,3.853 -1.221,-4.573 1.597,-0.416 1.26,4.683 0.492,-4.829 -0.562,-0.561 1.206,-1.127 3.201,3.331 -1.713,-4.475 1.558,-0.576 1.622,4.213 0.052,-4.467 1.651,0.024 -0.055,4.688 1.306,-2.984 -0.352,-10.471 c -10.094,3.34 -19.684,7.185 -26.383,14.178 -15.323,15.998 -12.743,30.682 -6.38,41.714 l 0.023,0.029 0.016,0.031 0.021,0.031 0.024,0.03 0.016,0.031 0.006,0.038 0.017,0.032 0.022,0.03 0.024,0.024 0.015,0.039 0.022,0.036 0.016,0.032 0.008,0.008 0.016,0.016 0.008,0.006 0.268,0.471 0.023,0.021 v 0.024 l 0.022,0.045 h 0.009 l 0.022,0.031 0.276,0.453 0.009,0.008 0.022,0.037 0.254,0.392 0.015,0.039 0.016,0.022 0.021,0.039 3.741,-0.055 75.312,-0.874 v 0.024 h 0.007 v -0.024 c -0.122,-24.449 -6.77,-48.813 -19.998,-67.013 -5.864,3.04 -12.442,5.242 -19.074,7.362 M -71.95,59.16 c 0.452,1.752 0.914,3.34 1.518,4.867 l -0.297,-8.812 -1.343,3.07 -0.024,0.346 z m -6.301,3.884 c 1.71,2.126 3.629,3.847 5.871,5.16 l -3.056,-3.018 1.175,-1.159 3.839,3.776 c -1.567,-2.678 -2.388,-5.296 -3.195,-8.512 l -0.006,-0.016 -0.139,-0.352 -0.268,-0.292 -3.593,-3.746 -0.713,7.2 -0.024,0.521 z m -1.506,6.495 0.245,0.314 0.316,0.194 c 1.789,0.558 3.669,0.874 5.549,0.959 l -4.152,-1.375 0.529,-1.559 3.371,1.13 c -2.242,-1.43 -4.192,-3.264 -5.934,-5.466 l -0.17,-0.185 -0.13,-0.176 -3.569,-0.729 z m 1.045,6.994 0.461,0.082 0.413,-0.131 4.668,-2.247 -4.644,0.784 -0.285,-1.613 4.499,-0.762 c -2.119,-0.09 -4.208,-0.437 -6.21,-1.066 l -0.215,-0.039 -0.239,0.048 -5.695,3.8 z m -1.006,10.147 -0.2,0.737 2.043,-1.488 z m 10.115,-10.478 -4.527,4.607 -1.197,-1.139 5.971,-6.079 -0.052,0.015 c -2.281,1.935 -5.344,3.425 -7.816,4.385 l -0.276,0.383 -1.689,6.325 6.173,-2.493 0.398,-0.185 0.222,-0.307 c 1.199,-1.759 2.113,-3.601 2.793,-5.512 m 5.974,6.086 c -1.051,-1.588 -1.873,-3.223 -2.527,-4.926 v 5.95 h -1.658 l -0.006,-7.234 c -0.729,2.25 -1.743,4.391 -3.125,6.449 l -0.061,0.423 3.647,6.993 3.784,-7.224 0.022,-0.237 z m -0.629,-49.857 0.07,-2.619 -5.605,4.164 0.093,2.493 z m -0.155,5.243 0.07,-2.626 -5.281,3.939 0.085,2.487 z m -0.176,5.258 0.091,-2.624 -4.949,3.676 0.075,2.495 z m -0.176,5.258 0.085,-2.632 -4.598,3.432 0.083,2.493 z m -0.176,5.267 0.085,-2.633 -4.254,3.162 0.085,2.504 z m -0.162,5.244 0.077,-2.611 -3.914,2.903 0.091,2.501 z m -3.491,10.301 0.067,2.287 0.109,0.14 3.024,-2.26 0.061,-2.602 z m 3.331,-5.05 0.076,-2.618 -3.586,2.663 0.085,2.503 z m -1.136,-40.195 h -3.447 l -0.292,0.207 0.092,2.496 z m -3.571,5.221 0.1,2.493 5.749,-4.283 0.063,-2.593 z m 14.685,55.53 -1.642,-6.134 -0.039,-0.261 -0.238,-0.122 c -2.211,-0.868 -4.889,-2.141 -7.069,-3.8 l 5.205,5.911 -1.251,1.075 -4.576,-5.191 c 0.667,1.911 1.542,3.733 2.708,5.497 l 0.247,0.346 0.361,0.138 z m 0.529,1.979 -1.95,-0.789 2.166,1.588 z m 1.121,-14.898 -0.237,-0.069 -0.207,0.06 c -2.019,0.677 -4.145,1.006 -6.288,1.066 l 4.5,0.762 -0.286,1.613 -5.28,-0.893 c 1.573,0.945 3.27,1.713 4.673,2.274 l 0.447,0.207 0.613,-0.076 7.662,-1.206 z m -6.325,-2.357 3.293,-1.068 0.514,1.543 -3.975,1.299 c 1.856,-0.085 3.684,-0.385 5.427,-0.938 l 0.352,-0.185 0.207,-0.344 3.938,-6.893 -3.553,0.729 -0.008,0.015 -0.053,0.077 c -1.751,2.394 -3.777,4.299 -6.142,5.765 m -1.866,-10.947 -1.503,-3.437 c -0.109,3.184 -0.2,6.362 -0.285,9.548 0.692,-1.81 1.152,-3.7 1.719,-5.789 l 0.063,-0.115 z m -1.15,8.798 3.116,-3.18 1.19,1.129 -3.477,3.554 c 2.542,-1.327 4.689,-3.115 6.525,-5.464 l 0.131,-0.484 -0.07,-0.553 -0.713,-7.2 -3.586,3.746 -0.408,0.276 -0.161,0.584 c -0.753,2.793 -1.357,5.22 -2.547,7.592 M -102.309,0.881 c 6.794,14.325 1.61,28.779 -5.329,42.49 -3.99,7.884 -8.558,15.536 -11.758,22.752 -2.089,4.729 -4.322,10.808 -3.463,16.144 0.614,3.808 2.909,7.4 6.18,9.426 2.801,1.743 5.457,3.025 8.567,4.16 l 0.015,0.006 0.313,0.116 1.221,0.421 c -8.075,-15.166 -5.05,-29.651 7.47,-42.717 7.116,-7.438 17.271,-11.431 27.802,-14.884 L -71.858,22.13 h 9.51 l -0.045,1.667 c -0.077,4.082 -0.191,8.175 -0.322,12.259 6.225,-1.997 12.329,-4.084 17.771,-6.863 C -58.01,12.105 -77.109,0.852 -102.287,0.852 h -0.022 z m -23.467,112.604 v -12.466 h -8.297 v 6.802 c 0,1.856 -1.266,3.562 -3.003,3.562 -1.734,0 -3.001,-1.706 -3.001,-3.562 v -6.802 h -8.074 v 12.466 z m 0,2.111 h -22.375 v 9.671 h 22.375 z m -7.453,20.68 h -7.47 l 0.255,4.16 h 6.954 z m 1.965,6.188 h -11.552 v 3.784 h 11.552 z m -6.854,5.803 h -2.696 v 2.494 h 2.696 z m 4.843,2.494 v -2.494 h -2.626 l -0.015,2.494 z m -5.466,8.582 c 0,0.89 0.729,1.612 1.635,1.612 0.898,0 1.636,-0.722 1.636,-1.612 l -0.009,-0.168 c -0.522,0.116 -1.051,0.146 -1.566,0.146 -0.553,0 -1.121,-0.048 -1.681,-0.16 z m 1.696,-2.041 h 0.008 c 2.949,0 5.373,-1.788 5.373,-3.984 v -0.531 h -10.754 v 0.531 c 0,2.196 2.418,3.984 5.373,3.984 m -4.72,-26.192 v 3.146 h 3.201 v -3.146 h 3.201 v 3.146 h 3.201 v -3.146 h 3.194 v 3.146 h 3.192 v -3.146 -3.723 h -22.375 v 3.723 3.146 h 3.192 v -3.146 z m -39.119,-32.333 0.093,0.01 h 0.514 l 1.457,-0.01 -0.091,0.01 c 21.87,0 50.31,0.006 73.107,0.006 -2.563,-0.799 -4.826,-1.664 -6.815,-2.587 l -0.591,-0.283 c -0.614,-0.308 -1.206,-0.599 -1.758,-0.907 -0.66,-0.374 -1.288,-0.745 -1.88,-1.137 v -0.006 c -5.904,-3.848 -8.206,-8.536 -8.267,-13.878 -0.024,-2.39 0.407,-4.913 1.157,-7.547 l 0.009,-0.03 0.246,-0.829 0.037,-0.094 c 0.292,-0.935 0.631,-1.889 0.991,-2.854 1.205,-3.147 2.68,-6.196 4.193,-9.211 1.111,-2.165 2.255,-4.321 3.407,-6.464 5.029,-9.388 10.586,-19.221 12.827,-29.731 1.321,-6.216 1.404,-12.596 -0.792,-18.707 l -0.006,-0.03 -0.031,-0.085 c -0.239,-0.668 -0.506,-1.327 -0.798,-1.989 -0.222,-0.498 -0.462,-1.012 -0.714,-1.503 h -0.046 l -0.039,0.006 h -0.03 c -1.95,0.055 -3.893,0.185 -5.828,0.385 -10.446,1.09 -20.602,4.376 -29.575,9.97 -28.962,18.048 -41.768,55.027 -40.769,87.396 v 0.039 z m 85.813,97.626 c 0.245,-0.014 0.537,-0.051 0.859,-0.115 5.912,-0.604 11.445,-1.855 16.613,-3.699 0.022,-0.008 0.046,-0.008 0.061,-0.015 0.483,-0.17 1.013,-0.376 1.604,-0.606 0.085,-0.031 0.17,-0.062 0.269,-0.101 h -0.008 c 0.538,-0.213 1.13,-0.459 1.779,-0.736 v 0.015 c 0.14,-0.06 0.262,-0.124 0.393,-0.176 0.16,-0.078 0.324,-0.138 0.501,-0.224 0.114,-0.037 0.252,-0.107 0.413,-0.183 5.25,-2.372 10.087,-5.365 14.494,-8.882 0.06,-0.045 0.106,-0.076 0.13,-0.099 0.699,-0.554 1.734,-1.419 2.879,-2.433 l 0.007,-0.01 c 0.285,-0.252 0.576,-0.513 0.868,-0.78 0.1,-0.094 0.183,-0.179 0.267,-0.261 4.467,-4.161 8.446,-8.892 11.922,-14.079 0.007,-0.009 0.016,-0.009 0.022,-0.015 0.024,-0.048 0.055,-0.079 0.085,-0.124 l 0.17,-0.268 -0.009,-0.008 c 0.385,-0.592 0.777,-1.182 1.029,-1.574 v 0.007 c -0.139,0.215 -0.276,0.446 -0.422,0.661 l 0.431,-0.661 h -0.009 l 0.07,-0.113 c 0.052,-0.07 0.091,-0.146 0.122,-0.195 v -0.005 c 3.049,-4.852 5.681,-10.058 7.892,-15.515 l -0.607,0.015 c -9.174,-0.1 -13.741,-4.874 -17.125,-10.146 -0.109,-0.17 -1.029,-1.798 -1.658,-2.811 -1.512,-2.609 -2.888,-5.151 -4.5,-7.108 0.321,1.274 0.598,2.564 0.792,3.877 0.076,0.591 0.147,1.181 0.192,1.772 0.015,0.769 0.061,2.135 0.061,2.135 -0.138,4.659 -2.427,8.88 -3.824,13.28 2.988,0.936 6.049,1.135 8.989,3.009 1.782,1.152 1.752,3.799 0.631,5.388 0,0 -0.169,0.999 -0.339,1.397 -0.122,0.261 -0.422,0.723 -0.66,1.084 -0.382,0.507 -0.852,0.943 -1.39,1.242 -0.674,1.552 -2.472,2.779 -4.16,2.456 -1.373,-0.26 -3.016,-1.096 -4.291,-1.696 -1.665,-0.797 -3.347,-1.565 -5.097,-2.164 -0.498,-0.178 -1.035,-0.339 -1.572,-0.476 -1.905,1.367 -3.893,2.579 -5.998,3.623 h 0.009 c -0.668,0.338 -1.405,0.667 -2.587,1.166 -0.614,0.254 -1.251,0.516 -1.889,0.738 -4.312,1.567 -8.743,2.386 -13.249,2.724 l 0.015,0.015 c -1.495,0.116 -2.939,0.14 -5.026,0.194 -0.807,0.006 -1.598,0.006 -2.403,-0.009 -1.627,-0.039 -4.667,0.362 -4.983,-1.934 -0.322,-2.287 2.673,-2.694 4.222,-3.147 0.07,-0.014 0.139,-0.032 0.191,-0.054 1.26,-0.33 0.392,-0.107 4.439,-1.206 0,0 0,-0.006 0.007,-0.006 4.415,-1.183 8.62,-2.38 12.444,-4.491 -2.296,-0.391 -3.954,-2.05 -4.968,-4.315 l -0.437,-1.03 c -0.507,-1.272 -0.868,-2.73 -1.112,-3.944 l 0.007,0.015 -0.438,-2.572 3.147,0.868 c 1.314,0.346 2.887,0.529 4.215,0.86 1.366,-0.137 3.048,-0.346 4.26,-0.836 l 0.045,-0.015 0.055,-0.009 c 1.066,-0.383 2.111,-0.82 3.14,-1.312 0.085,-0.031 0.168,-0.06 0.246,-0.1 1.343,-0.607 1.849,-1.013 2.117,-1.367 l 0.024,0.016 c 0.039,-0.07 0.076,-0.131 0.115,-0.191 0.007,-0.031 0.022,-0.055 0.038,-0.076 0.008,-0.009 0.014,-0.033 0.024,-0.055 1.633,-2.994 2.556,-7.992 3.124,-12.159 v -0.024 c 0.007,-0.077 0.022,-0.168 0.037,-0.268 0,-0.023 0.009,-0.039 0.009,-0.062 0.06,-0.46 0.146,-1.173 0.237,-1.927 h 0.008 c 0.086,-0.768 0.168,-1.481 0.237,-2.111 l 0.116,-1.028 c -1.19,0.3 -2.326,0.613 -3.177,0.843 -0.339,0.1 -0.638,0.177 -0.844,0.231 -0.015,0.009 -0.033,0.016 -0.048,0.016 l -0.192,0.045 c -1.027,0.276 -3.131,0.792 -4.26,1.045 -0.714,0.154 -1.412,0.3 -2.117,0.415 -3.271,0.513 -6.772,-1.582 -9.244,-3.455 -0.783,-0.599 -1.557,-1.228 -2.311,-1.895 -2.471,-2.336 -3.839,-3.739 -5.226,-5.375 -0.285,-0.322 -0.547,-0.644 -0.805,-0.966 -1.321,-1.604 -2.441,-3.094 -3.693,-4.838 -0.531,-0.75 -1.045,-1.518 -1.543,-2.292 l -0.015,-0.01 c -0.637,-1.019 -1.175,-1.949 -1.567,-2.663 -0.683,-1.245 -1.296,-2.48 -1.788,-3.701 h -0.076 -1.139 -1.909 -1.92 -0.568 -0.674 l -2.696,-0.007 h -2.002 -1.376 -0.966 -1.958 -0.737 -0.038 -3.07 v 19.691 1.579 2.39 3.398 4.953 3.438 h -4.652 -1.935 -0.868 l -0.253,4.16 h 0.66 1.282 0.276 v 1.412 6.419 h -1.926 v 2.494 h 1.528 v 2.557 c 0,2.502 -1.727,4.33 -3.899,5.265 l 0.085,0.76 c 0,1.612 -1.06,2.97 -2.527,3.447 -0.337,0.094 -0.683,0.146 -1.02,0.146 -0.362,0 -0.654,-0.016 -0.899,-0.031 v -0.006 c -1.666,-0.346 -2.918,-1.804 -2.918,-3.556 l 0.085,-0.799 c -2.117,-0.965 -3.776,-2.763 -3.776,-5.226 v -2.557 h 1.535 v -2.494 h -1.92 v -7.831 h 0.699 1.406 0.252 l -0.252,-4.16 h -0.554 -1.942 -4.951 v -2.655 -4.876 -4.567 -2.409 -20.956 -0.009 h -5.62 -9.785 v -0.007 h -15.238 c 0.006,0.483 0.031,0.96 0.039,1.451 -0.055,0.398 -0.078,0.975 -0.039,1.826 0.106,1.904 0.185,2.417 0.376,4.728 l -0.009,0.009 c 0.031,0.368 0.061,0.72 0.094,1.09 0.022,0.268 0.046,0.553 0.068,0.866 0.315,4.108 0.522,5.344 1.129,9.128 0.1,0.623 0.2,1.212 0.3,1.78 v 0.009 c 0.49,2.864 0.982,5.059 1.45,7.1 0.245,1.084 0.467,1.949 0.691,2.824 0.031,0.1 0.061,0.2 0.085,0.307 0.276,1.029 0.574,2.113 0.99,3.586 0.468,1.688 0.96,3.162 1.512,4.752 0.384,1.128 0.79,2.257 1.203,3.362 0.039,0.1 0.07,0.2 0.116,0.307 1.199,3.301 1.39,3.807 2.887,6.885 0.085,0.161 0.161,0.33 0.247,0.507 1.643,3.501 3.453,6.862 5.456,10.087 0.009,0.023 0.016,0.037 0.024,0.053 1.137,2.158 3.223,4.906 5.173,7.4 0.307,0.401 0.616,0.798 0.928,1.19 0.086,0.107 0.17,0.215 0.255,0.322 2.203,2.834 4.052,4.829 6.555,7.115 0.054,0.055 0.115,0.101 0.185,0.155 3.231,3.07 6.732,5.825 10.485,8.237 0.07,0.054 0.162,0.108 0.231,0.154 2.502,1.664 1.397,0.866 4.352,2.539 0.461,0.261 0.829,0.446 1.145,0.586 3.951,2.016 8.159,3.668 12.618,4.904 0.085,0.03 0.176,0.054 0.239,0.076 2.118,0.623 3.799,0.953 5.457,1.251 4.537,0.868 9.305,1.321 14.316,1.321 0.185,0 0.507,-0.009 0.89,-0.015 0.992,-0.009 1.867,-0.046 3.049,-0.101 0.544,-0.024 0.951,-0.039 1.019,-0.039 l -0.005,-0.021 c 0.65,-0.024 1.388,-0.07 2.263,-0.125 m 60.835,-216.639 c -15.269,-8.097 -31.005,-15.743 -45.743,-24.717 -7.461,-4.552 -15.545,-9.979 -22.262,-16.428 -6.724,6.449 -14.808,11.876 -22.269,16.428 -14.738,8.974 -30.474,16.62 -45.735,24.717 -19.297,10.224 -53.835,28.557 -60.673,50.61 -0.882,2.825 -1.321,5.712 -1.321,8.658 0,18.132 6.917,35.159 13.764,51.677 6.916,16.674 15.061,35.181 12.996,53.59 -1.744,15.475 -10.209,27.364 -21.601,36.839 l 17.064,21.361 41.922,-41.343 c -26.584,-44.792 -20.228,-116.573 19.797,-147.906 13.317,-10.435 29.068,-15.362 46.041,-15.362 29.061,0 50.379,14.287 63.975,35.235 L -2.741,-1.935 C -13.878,-9.55 -25.8,-15.752 -34.236,-20.236 m 50.48,111.852 c -6.733,16.22 -14.84,34.513 -12.827,52.412 1.643,14.601 9.571,25.986 20.747,35.273 l 1.813,1.491 -32.072,40.14 -0.905,0.16 c -63.116,11.398 -127.358,10.07 -190.518,-0.115 l -0.943,-0.155 -31.989,-40.03 1.797,-1.491 c 11.176,-9.287 19.098,-20.672 20.741,-35.273 2.019,-17.899 -6.089,-36.192 -12.818,-52.412 -7.002,-16.849 -13.942,-34.09 -13.942,-52.584 0,-3.177 0.484,-6.316 1.421,-9.347 7.1,-22.891 41.589,-41.285 61.848,-52.032 15.268,-8.098 30.865,-15.657 45.611,-24.646 7.683,-4.693 15.36,-9.872 21.847,-16.098 l 1.704,-1.643 1.705,1.643 c 6.487,6.226 14.155,11.405 21.848,16.098 14.752,8.989 30.343,16.548 45.603,24.646 21.986,11.66 63.268,33.025 63.268,61.379 0,18.494 -6.948,35.735 -13.939,52.584" /></g><g
           transform="translate(498.1641,89.7903)"
           id="g710"><path
             id="path712"
             style="fill:#545453;fill-opacity:1;fill-rule:nonzero;stroke:none"
             d="m 0,0 c 6.082,0 10.654,3.176 10.654,8.419 0,6.486 -5.904,7.884 -10.83,9.585 -2.781,0.976 -5.156,1.881 -5.156,4.344 0,2.195 2.146,3.668 5.193,3.668 3.188,0 5.561,-1.613 7.124,-3.44 H 7.34 l 2.641,2.768 v 0.404 c -2.006,2.553 -5.638,4.433 -10.209,4.433 -6.043,0 -10.169,-3.403 -10.169,-8.151 0,-5.104 4.431,-7.036 7.884,-8.241 4.304,-1.561 8.062,-1.969 8.062,-5.459 0,-2.337 -2.195,-4.038 -5.864,-4.038 -2.959,0 -6.363,1.751 -8.469,4.442 H -9.191 L -11.87,5.956 V 5.549 C -9.28,2.057 -4.798,0 0,0 m 38.245,25.431 v 4.216 h -20.2 V 0.533 H 38.281 V 4.748 H 23.009 v 8.419 H 35.02 v 4.025 H 23.009 v 8.239 z M 58.446,0 c 5.155,0 9.409,2.285 12.137,5.728 V 6.133 L 67.448,8.647 H 67.094 C 65.124,6.082 62.026,4.47 58.535,4.47 c -5.866,0 -10.438,4.444 -10.438,10.628 0,6.171 4.572,10.614 10.438,10.614 3.491,0 6.589,-1.612 8.559,-4.166 h 0.354 l 3.135,2.5 v 0.408 c -2.767,3.492 -7.071,5.727 -12.087,5.727 -8.645,0 -15.412,-6.45 -15.412,-15.083 C 43.084,6.45 49.851,0 58.446,0 m 35.12,12.81 c 3.897,1.156 6.182,3.936 6.182,8.012 0,5.512 -3.719,8.825 -10.701,8.825 H 77.353 V 0.533 h 4.963 v 11.695 h 6.271 L 94.822,0.533 h 4.876 l 0.228,0.407 z m -11.25,12.621 h 7.175 c 3.224,0 5.191,-1.917 5.191,-4.736 0,-2.831 -1.967,-4.799 -5.191,-4.799 h -7.175 z m 45.379,0 v 4.216 H 107.496 V 0.533 h 20.237 v 4.215 h -15.274 v 8.419 h 12.012 v 4.025 h -12.012 v 8.239 z m 18.768,0 h 9.407 v 4.216 h -23.781 v -4.216 h 9.409 V 0.533 h 4.965 z m 25.222,4.216 h -2.692 L 155.472,0.94 155.687,0.533 h 4.8 l 2.64,5.917 h 14.195 l 2.603,-5.917 h 4.976 l 0.216,0.407 z m -6.893,-19.439 5.496,12.368 5.422,-12.368 z m 42.585,2.602 c 3.897,1.156 6.182,3.936 6.182,8.012 0,5.512 -3.719,8.825 -10.702,8.825 H 191.164 V 0.533 h 4.963 v 11.695 h 6.272 l 6.233,-11.695 h 4.876 l 0.229,0.407 z m -11.25,12.621 h 7.174 c 3.225,0 5.192,-1.917 5.192,-4.736 0,-2.831 -1.967,-4.799 -5.192,-4.799 h -7.174 z m 25.18,-24.898 h 4.964 v 29.114 h -4.964 z m 27.182,29.114 h -2.691 L 232.276,0.94 232.492,0.533 h 4.8 l 2.64,5.917 h 14.195 l 2.602,-5.917 h 4.977 l 0.215,0.407 z m -6.893,-19.439 5.496,12.368 5.423,-12.368 z m 49.087,19.439 h -11.87 V 0.533 h 11.87 c 9.217,0 15.223,5.827 15.223,14.601 0,8.684 -6.006,14.513 -15.223,14.513 M 290.594,4.748 h -6.817 v 20.683 h 6.817 c 6.184,0 10.26,-4.024 10.26,-10.333 0,-6.325 -4.076,-10.35 -10.26,-10.35 m 34.573,24.899 h -2.691 L 308.954,0.94 309.17,0.533 h 4.8 l 2.64,5.917 h 14.196 l 2.602,-5.917 h 4.976 L 338.6,0.94 Z m -6.893,-19.439 5.497,12.368 5.422,-12.368 z" /></g><g
           transform="translate(863.4302,89.7903)"
           id="g714"><path
             id="path716"
             style="fill:#3c3c3b;fill-opacity:1;fill-rule:nonzero;stroke:none"
             d="m 0,0 c 6.271,0 11.426,3.137 11.426,8.823 0,6.539 -5.79,8.063 -10.754,9.625 -2.374,0.814 -4.572,1.575 -4.572,3.492 0,1.613 1.613,2.603 3.937,2.603 3.048,0 5.472,-1.701 6.906,-3.188 h 0.496 l 3.44,3.95 v 0.496 c -2.106,2.5 -6.181,4.38 -10.932,4.38 -6.486,0 -10.968,-3.53 -10.968,-8.597 0,-5.421 4.886,-7.656 8.875,-8.913 3.58,-1.116 6.397,-1.434 6.397,-3.898 0,-1.701 -1.788,-2.87 -4.658,-2.87 -2.87,0 -6.221,1.752 -8.062,3.861 h -0.496 l -3.44,-3.987 V 5.231 C -9.816,2.057 -5.194,0 0,0 M 32.021,29.647 H 27.77 L 14.335,1.066 14.64,0.533 h 6.818 l 2.146,5.105 H 35.92 l 2.106,-5.105 h 7.073 l 0.318,0.533 z m -6.36,-19.171 4.214,9.902 4.076,-9.902 z m 40.671,31.665 -9.817,-6.273 v -0.482 l 1.666,-2.782 h 0.48 l 10.756,4.662 v 0.493 l -2.604,4.382 z M 48.897,29.647 V 13.484 C 48.897,5.371 54.32,0 62.432,0 70.444,0 75.827,5.371 75.827,13.484 V 29.647 H 68.971 V 13.115 c 0,-4.112 -2.639,-6.844 -6.539,-6.844 -3.897,0 -6.538,2.732 -6.538,6.844 v 16.532 z m 47.702,0 H 83.889 V 0.533 h 12.71 c 9.409,0 15.325,5.827 15.325,14.601 0,8.684 -5.916,14.513 -15.325,14.513 M 96.384,6.271 h -5.51 V 23.92 h 5.51 c 5.015,0 8.418,-3.326 8.418,-8.822 0,-5.513 -3.403,-8.827 -8.418,-8.827 M 139.97,23.92 v 5.727 H 118.742 V 0.533 h 21.318 v 5.738 h -14.333 v 6.134 h 11.019 v 5.459 h -11.019 v 6.056 z" /></g></g></g></g></svg>